0
SECTION
2
HEADER
9
$INSUNITS
70
4
9
$ACADVER
1
AC1014
9
$HANDSEED
5
FFFF
0
ENDSEC
0
SECTION
2
TABLES
0
TABLE
2
VPORT
5
8
100
AcDbSymbolTable
0
ENDTAB
0
TABLE
2
LTYPE
5
5
100
AcDbSymbolTable
0
LTYPE
5
14
100
AcDbSymbolTableRecord
100
AcDbLinetypeTableRecord
2
BYBLOCK
70
0
0
LTYPE
5
15
100
AcDbSymbolTableRecord
100
AcDbLinetypeTableRecord
2
BYLAYER
70
0
0
LTYPE
5
16
100
AcDbSymbolTableRecord
100
AcDbLinetypeTableRecord
2
DASHED
70
0
3
Dashed __ __ __ __ __ __ __ __ __ __ __ __ __ _
72
65
73
2
40
0.75
49
0.5
74
0
49
-0.25
74
0
0
ENDTAB
0
TABLE
2
LAYER
5
2
100
AcDbSymbolTable
70
3
0
LAYER
5
50
100
AcDbSymbolTableRecord
100
AcDbLayerTableRecord
2
1
70
0
62
7
6
DASHED
0
LAYER
5
51
100
AcDbSymbolTableRecord
100
AcDbLayerTableRecord
2
0
70
0
62
7
6
CONTINUOUS
0
ENDTAB
0
TABLE
2
STYLE
5
3
100
AcDbSymbolTable
70
1
0
STYLE
5
11
100
AcDbSymbolTableRecord
100
AcDbTextStyleTableRecord
2
STANDARD
70
0
0
ENDTAB
0
TABLE
2
VIEW
5
6
100
AcDbSymbolTable
70
0
0
ENDTAB
0
TABLE
2
UCS
5
7
100
AcDbSymbolTable
70
0
0
ENDTAB
0
TABLE
2
APPID
5
9
100
AcDbSymbolTable
70
2
0
APPID
5
12
100
AcDbSymbolTableRecord
100
AcDbRegAppTableRecord
2
ACAD
70
0
0
ENDTAB
0
TABLE
2
DIMSTYLE
5
A
100
AcDbSymbolTable
70
1
0
ENDTAB
0
TABLE
2
BLOCK_RECORD
5
1
100
AcDbSymbolTable
70
1
0
BLOCK_RECORD
5
1F
100
AcDbSymbolTableRecord
100
AcDbBlockTableRecord
2
*MODEL_SPACE
0
BLOCK_RECORD
5
1B
100
AcDbSymbolTableRecord
100
AcDbBlockTableRecord
2
*PAPER_SPACE
0
ENDTAB
0
ENDSEC
0
SECTION
2
BLOCKS
0
BLOCK
5
20
100
AcDbEntity
100
AcDbBlockBegin
2
*MODEL_SPACE
0
ENDBLK
5
21
100
AcDbEntity
100
AcDbBlockEnd
0
BLOCK
5
1C
100
AcDbEntity
100
AcDbBlockBegin
2
*PAPER_SPACE
0
ENDBLK
5
1D
100
AcDbEntity
100
AcDbBlockEnd
0
ENDSEC
0
SECTION
2
ENTITIES
0
POINT
5
100
100
AcDbEntity
8
0
100
AcDbPoint
10
27.944593778940714
20
-9.4999999994987618
30
0
0
POINT
5
101
100
AcDbEntity
8
0
100
AcDbPoint
10
27.944593778940714
20
9.5000000005012382
30
0
0
POINT
5
102
100
AcDbEntity
8
0
100
AcDbPoint
10
100.00000137090683
20
-20
30
0
0
POINT
5
103
100
AcDbEntity
8
0
100
AcDbPoint
10
100.00000137090683
20
20
30
0
0
POINT
5
104
100
AcDbEntity
8
0
100
AcDbPoint
10
27.44459377894983
20
4.1041044671654724e-11
30
0
0
LINE
5
105
100
AcDbEntity
8
0
100
AcDbLine
10
71.743495296090359
20
-35.287416577767388
30
0
11
88.962222733590465
21
-35.287416577767388
31
0
0
LINE
5
106
100
AcDbEntity
8
0
100
AcDbLine
10
91.96222273359048
20
-32.287416577767388
30
0
11
91.96222273359048
21
-23
31
0
0
LINE
5
107
100
AcDbEntity
8
0
100
AcDbLine
10
88.962222733590437
20
35.287476047768578
30
0
11
69.955583555363376
21
35.287476047768571
31
0
0
LINE
5
108
100
AcDbEntity
8
0
100
AcDbLine
10
71.743495296090359
20
-35.287416577767388
30
0
11
69.955583555363376
21
-35.287416577767388
31
0
0
LINE
5
109
100
AcDbEntity
8
0
100
AcDbLine
10
66.955583555363376
20
-32.287416577767388
30
0
11
66.955583555363376
21
-24.129888368731489
31
0
0
LINE
5
110
100
AcDbEntity
8
0
100
AcDbLine
10
35.444593778758041
20
-18.129888368464172
30
0
11
35.444593778758041
21
-17.433610405220058
31
0
0
LINE
5
111
100
AcDbEntity
8
0
100
AcDbLine
10
66.955583555363376
20
32.287476047768571
30
0
11
66.955583555363376
21
24.129888368731493
31
0
0
LINE
5
112
100
AcDbEntity
8
0
100
AcDbLine
10
35.444593778758041
20
18.129888368464172
30
0
11
35.444593778758041
21
17.433610405220058
31
0
0
ARC
5
113
100
AcDbEntity
8
0
100
AcDbCircle
10
63.955583555363383
20
-24.129888368731475
30
0
40
2.9999999999999982
210
0
220
0
230
1
100
AcDbArc
50
0
51
89.999999999399648
0
ARC
5
114
100
AcDbEntity
8
0
100
AcDbCircle
10
69.955583555363361
20
-32.287416577767402
30
0
40
2.9999999999999805
210
0
220
0
230
1
100
AcDbArc
50
180
51
270.00000000000023
0
ARC
5
115
100
AcDbEntity
8
0
100
AcDbCircle
10
38.444593778758033
20
-18.129888368464179
30
0
40
2.9999999999999938
210
0
220
0
230
1
100
AcDbArc
50
180
51
269.99999999939979
0
ARC
5
116
100
AcDbEntity
8
0
100
AcDbCircle
10
38.444593778758041
20
18.129888368464172
30
0
40
3.0000000000000027
210
0
220
0
230
1
100
AcDbArc
50
90.000000000600352
51
180
0
ARC
5
117
100
AcDbEntity
8
0
100
AcDbCircle
10
63.955583555363376
20
24.129888368731489
30
0
40
3.0000000000000027
210
0
220
0
230
1
100
AcDbArc
50
-90.000000023556964
51
0
0
ARC
5
118
100
AcDbEntity
8
0
100
AcDbCircle
10
69.955583555363361
20
32.287476047768585
30
0
40
2.9999999999999849
210
0
220
-0
230
1
100
AcDbArc
50
89.99999999999973
51
180
0
ARC
5
119
100
AcDbEntity
8
0
100
AcDbCircle
10
88.962222733590423
20
32.287476047768557
30
0
40
3.0000000000000249
210
0
220
-0
230
1
100
AcDbArc
50
0
51
89.99999999999973
0
ARC
5
120
100
AcDbEntity
8
0
100
AcDbCircle
10
88.962222733590451
20
-32.28741657776736
30
0
40
3.0000000000000249
210
0
220
0
230
1
100
AcDbArc
50
270.00000000000023
51
360
0
CIRCLE
5
121
100
AcDbEntity
8
0
100
AcDbCircle
10
51.200088667029277
20
-24.129888368597825
30
0
40
1.5000000000000009
210
0
220
0
230
1
0
LINE
5
122
100
AcDbEntity
8
0
100
AcDbLine
10
63.955583555394817
20
-21.129888368731478
30
0
11
57.200088667060712
21
-21.129888368660694
31
0
0
LINE
5
123
100
AcDbEntity
8
0
100
AcDbLine
10
45.200088667060719
20
-21.12988836853496
30
0
11
38.444593778726606
21
-21.129888368464172
31
0
0
ARC
5
124
100
AcDbEntity
8
0
100
AcDbCircle
10
51.200088667029277
20
-24.129888368597825
30
0
40
2.9999999999999982
210
0
220
0
230
1
100
AcDbArc
50
180
51
360
0
ARC
5
125
100
AcDbEntity
8
0
100
AcDbCircle
10
57.200088667029277
20
-24.129888368660701
30
0
40
3.0000000000000071
210
0
220
-0
230
1
100
AcDbArc
50
89.999999999399648
51
180
0
ARC
5
126
100
AcDbEntity
8
0
100
AcDbCircle
10
45.200088667029306
20
-24.129888368534932
30
0
40
2.9999999999999716
210
0
220
0
230
1
100
AcDbArc
50
0
51
89.99999999940006
0
ARC
5
127
100
AcDbEntity
8
0
100
AcDbCircle
10
45.200088664894871
20
24.129888370321755
30
0
40
2.9999999999999716
210
0
220
0
230
1
100
AcDbArc
50
-89.999999994331787
51
0
0
ARC
5
128
100
AcDbEntity
8
0
100
AcDbCircle
10
57.200088664894849
20
24.12988837150899
30
0
40
3.0000000000000071
210
0
220
0
230
1
100
AcDbArc
50
180
51
270.00000000566848
0
ARC
5
129
100
AcDbEntity
8
0
100
AcDbCircle
10
51.200088664894842
20
24.129888370915378
30
0
40
2.9999999999999982
210
0
220
-0
230
1
100
AcDbArc
50
0
51
180
0
CIRCLE
5
130
100
AcDbEntity
8
0
100
AcDbCircle
10
51.200088664894842
20
24.129888370915378
30
0
40
1.5000000000000009
210
0
220
0
230
1
0
LINE
5
131
100
AcDbEntity
8
0
100
AcDbLine
10
63.955583554129937
20
21.129888368731486
30
0
11
57.20008866519165
21
21.129888371508983
31
0
0
LINE
5
132
100
AcDbEntity
8
0
100
AcDbLine
10
45.200088665191657
20
21.129888370321783
30
0
11
38.444593778726606
21
21.129888368464176
31
0
0
LWPOLYLINE
5
133
100
AcDbEntity
8
0
100
AcDbPolyline
90
16
70
1
43
0.0
10
33.444593778894657
20
-9.4999999994987618
10
29.944593778940714
20
-9.4999999994987618
42
-0.41421356237309459
10
27.944593778940714
20
-7.4999999994987636
10
27.944593778940714
20
7.5000000005012391
42
-0.41421356237309459
10
29.944593778940714
20
9.5000000005012382
10
32.444593779009793
20
9.5000000005012382
42
0.41421356236635132
10
35.444593779009793
20
12.500000000432161
10
35.444593778986764
20
10.5000000000065
42
-0.41421356236972384
10
32.444593778986771
20
7.5000000000410409
10
18.944593778947429
20
7.5000000000410445
42
0.41421356237309542
10
15.944593778947434
20
4.5000000000410454
10
15.944593778947432
20
-4.4999999999589546
42
0.41421356237309542
10
18.944593778947429
20
-7.4999999999589573
10
32.444593778909052
20
-7.4999999999589573
42
-0.41421356237731044
10
35.444593778909052
20
-10.500000000002132
10
35.444593778894664
20
-11.499999999544812
42
0.41421356237983853
0
LINE
5
134
100
AcDbEntity
8
0
100
AcDbLine
10
35.444593778758041
20
-17.433610405220058
30
0
11
35.444593778894664
21
-11.499999999544812
31
0
0
LINE
5
135
100
AcDbEntity
8
0
100
AcDbLine
10
35.444593779009793
20
12.500000000432161
30
0
11
35.444593779123387
21
17.433610406143941
31
0
0
LINE
5
136
100
AcDbEntity
8
0
100
AcDbLine
10
91.962222733590465
20
-8.7999702649994109
30
0
11
71.962222733590465
21
-8.7999702649994216
31
0
0
LINE
5
137
100
AcDbEntity
8
0
100
AcDbLine
10
91.96222273359048
20
-26.399970264999414
30
0
11
71.96222273359048
21
-26.399970264999425
31
0
0
LINE
5
138
100
AcDbEntity
8
0
100
AcDbLine
10
91.962222733590465
20
8.8000297350005923
30
0
11
71.962222733590465
21
8.8000297350005816
31
0
0
LINE
5
139
100
AcDbEntity
8
0
100
AcDbLine
10
91.962222733590437
20
26.500029735000595
30
0
11
71.962222733590437
21
26.500029735000584
31
0
0
LINE
5
140
100
AcDbEntity
8
0
100
AcDbLine
10
79.262222733590477
20
-35.287416577767395
30
0
11
79.262222733590477
21
35.287476047768578
31
0
0
LWPOLYLINE
5
141
100
AcDbEntity
8
0
100
AcDbPolyline
90
9
70
1
43
0.0
10
100.00000137090683
20
0
10
100.00000137090683
20
-17
42
-0.41421356237309093
10
97.00000137090683
20
-20
10
94.962222733590494
20
-20.000000000000004
42
0.41421356237309287
10
91.96222273359048
20
-23.000000000000004
10
91.962222733590437
20
22.999999999999993
42
0.41421356237309115
10
94.962222733590451
20
19.999999999999996
10
97.00000137090683
20
19.999999999999996
42
-0.41421356237309093
10
100.00000137090683
20
16.999999999999996
0
LINE
5
142
100
AcDbEntity
8
0
100
AcDbLine
10
91.962222733590437
20
22.999999999999993
30
0
11
91.962222733590437
21
32.287476047768571
31
0
0
ENDSEC
0
SECTION
2
OBJECTS
0
DICTIONARY
5
C
100
AcDbDictionary
3
ACAD_GROUP
350
D
3
ACAD_MLINESTYLE
350
17
0
DICTIONARY
5
D
100
AcDbDictionary
0
DICTIONARY
5
1A
330
C
100
AcDbDictionary
0
DICTIONARY
5
17
100
AcDbDictionary
0
ENDSEC
0
EOF
