0
SECTION
2
HEADER
9
$INSUNITS
70
4
9
$ACADVER
1
AC1014
9
$HANDSEED
5
FFFF
0
ENDSEC
0
SECTION
2
TABLES
0
TABLE
2
VPORT
5
8
100
AcDbSymbolTable
0
ENDTAB
0
TABLE
2
LTYPE
5
5
100
AcDbSymbolTable
0
LTYPE
5
14
100
AcDbSymbolTableRecord
100
AcDbLinetypeTableRecord
2
BYBLOCK
70
0
0
LTYPE
5
15
100
AcDbSymbolTableRecord
100
AcDbLinetypeTableRecord
2
BYLAYER
70
0
0
LTYPE
5
16
100
AcDbSymbolTableRecord
100
AcDbLinetypeTableRecord
2
DASHED
70
0
3
Dashed __ __ __ __ __ __ __ __ __ __ __ __ __ _
72
65
73
2
40
0.75
49
0.5
74
0
49
-0.25
74
0
0
ENDTAB
0
TABLE
2
LAYER
5
2
100
AcDbSymbolTable
70
3
0
LAYER
5
50
100
AcDbSymbolTableRecord
100
AcDbLayerTableRecord
2
1
70
0
62
7
6
DASHED
0
LAYER
5
51
100
AcDbSymbolTableRecord
100
AcDbLayerTableRecord
2
0
70
0
62
7
6
CONTINUOUS
0
ENDTAB
0
TABLE
2
STYLE
5
3
100
AcDbSymbolTable
70
1
0
STYLE
5
11
100
AcDbSymbolTableRecord
100
AcDbTextStyleTableRecord
2
STANDARD
70
0
0
ENDTAB
0
TABLE
2
VIEW
5
6
100
AcDbSymbolTable
70
0
0
ENDTAB
0
TABLE
2
UCS
5
7
100
AcDbSymbolTable
70
0
0
ENDTAB
0
TABLE
2
APPID
5
9
100
AcDbSymbolTable
70
2
0
APPID
5
12
100
AcDbSymbolTableRecord
100
AcDbRegAppTableRecord
2
ACAD
70
0
0
ENDTAB
0
TABLE
2
DIMSTYLE
5
A
100
AcDbSymbolTable
70
1
0
ENDTAB
0
TABLE
2
BLOCK_RECORD
5
1
100
AcDbSymbolTable
70
1
0
BLOCK_RECORD
5
1F
100
AcDbSymbolTableRecord
100
AcDbBlockTableRecord
2
*MODEL_SPACE
0
BLOCK_RECORD
5
1B
100
AcDbSymbolTableRecord
100
AcDbBlockTableRecord
2
*PAPER_SPACE
0
ENDTAB
0
ENDSEC
0
SECTION
2
BLOCKS
0
BLOCK
5
20
100
AcDbEntity
100
AcDbBlockBegin
2
*MODEL_SPACE
0
ENDBLK
5
21
100
AcDbEntity
100
AcDbBlockEnd
0
BLOCK
5
1C
100
AcDbEntity
100
AcDbBlockBegin
2
*PAPER_SPACE
0
ENDBLK
5
1D
100
AcDbEntity
100
AcDbBlockEnd
0
ENDSEC
0
SECTION
2
ENTITIES
0
POINT
5
100
100
AcDbEntity
8
0
100
AcDbPoint
10
-154.32656338317474
20
-102.51113399218434
30
0
0
POINT
5
101
100
AcDbEntity
8
0
100
AcDbPoint
10
-9.9999996483834117
20
-43.544368306011158
30
0
0
LWPOLYLINE
5
102
100
AcDbEntity
8
0
100
AcDbPolyline
90
96
70
1
43
0.0
10
-36.166277141188857
20
-80.105220435912017
10
-41.609536309706471
20
-74.928583310694194
42
-0.42958583797661332
10
-41.60519242693033
20
-70.576674456575731
42
-0.044882604464293367
10
-33.099317325920545
20
-63.857272766950935
42
0.56179860010636773
10
-33.262281983788561
20
-58.735592439392846
42
-0.18410967657488264
10
-63.918027286711407
20
-21.696428504985732
42
0.32130871300027652
10
-66.285361832751178
20
-19.999999999733124
10
-66.654324639529051
20
-19.999999999734491
42
0.41421356237200713
10
-69.154324639519785
20
-22.499999999734499
10
-69.154324639519785
20
-22.999999999166665
42
-0.99999999999999989
10
-75.154324639519785
20
-22.999999999166665
10
-75.154324639519785
20
-22.499999999775248
42
0.41421356237418083
10
-77.654324639529037
20
-19.999999999775252
10
-78.332624111091633
20
-19.999999999777764
42
0.4987232911533081
10
-80.735465341453249
20
-23.190184048876038
42
0.013081494135536028
10
-79.412149743956093
20
-27.380841352224429
42
-0.40414749524432003
10
-81.173194100426102
20
-31.159469822896426
10
-88.178882887663065
20
-33.848701788967965
42
-0.42354419705023638
10
-92.08744663265864
20
-32.033610049486178
42
-0.16896482662457712
10
-92.087446632658612
20
32.033610051152863
42
-0.42354419705023871
10
-88.178882887663065
20
33.848701790634649
10
-81.173194100405155
20
31.159469824555469
42
-0.40414749524431942
10
-79.41214974393516
20
27.380841353883515
42
0.01308149413743788
10
-80.73546534160414
20
23.190184049920912
42
0.49872329115322694
10
-78.332624111234693
20
20.000000000833342
10
-77.654324639519771
20
20.000000000833342
42
0.41421356237309609
10
-75.154324639519757
20
22.500000000833342
10
-75.154324639519757
20
23.000000000833339
42
-0.99999999999999989
10
-69.154324639519757
20
23.000000000833339
10
-69.154324639519757
20
22.500000000833346
42
0.41421356237309609
10
-66.654324639519757
20
20.000000000833346
10
-66.285361823941543
20
20.000000000833346
42
0.32130871299022451
10
-63.918027277937348
20
21.696428506008441
42
-0.29194696302562373
10
-7.2321428360285145
20
67.111439643211824
42
0.38311007959632015
10
-5.000000000970144
20
69.597048731381037
10
-5.0000000009701449
20
69.824296474444481
42
0.41421356237309465
10
-7.5000000009701413
20
72.324296474444481
10
-8.0000000009701413
20
72.324296474444481
42
-0.99999999999999989
10
-8.0000000009701413
20
78.324296474444481
10
-7.5000000009701395
20
78.324296474444481
42
0.41421356237309437
10
-5.0000000009701449
20
80.824296474444481
10
-5.000000000970144
20
81.154174261927267
42
0.44147004424346503
10
-7.7300613506633864
20
83.643566110427088
42
0.060040646877542118
10
-27.380841354020351
20
79.412149743798338
42
-0.40414749524432397
10
-31.159469824692309
20
81.173194100268319
10
-33.8487017907715
20
88.178882887526242
42
-0.42354419705023794
10
-32.033610051289777
20
92.08744663252179
42
-0.16896482662457735
10
32.03361004934937
20
92.08744663252179
42
-0.42354419705023844
10
33.848701788831129
20
88.178882887526257
10
31.159469822751952
20
81.173194100268361
42
-0.40414749524432358
10
27.38084135207999
20
79.412149743798381
42
0.060040646877541889
10
7.7300613487231082
20
83.643566110427088
42
0.44147004424347303
10
4.9999999990298605
20
81.154174261927281
10
4.9999999990298649
20
80.824296474444481
42
0.4142135623730992
10
7.499999999029856
20
78.324296474444481
10
7.9999999990298596
20
78.324296474444481
42
-0.99999999999999989
10
7.9999999990298596
20
72.324296474444495
10
7.499999999029856
20
72.324296474444495
42
0.41421356237309592
10
4.999999999029848
20
69.824296474444495
10
4.9999999990298489
20
69.597048731381051
42
0.3831100795963186
10
7.232142834088199
20
67.111439643211853
42
-0.35263982622714024
10
67.111439641408339
20
7.2321428358916826
42
0.38311007959632321
10
69.597048729577565
20
5.0000000008333148
10
69.824296472640981
20
5.0000000008333148
42
0.41421356237309698
10
72.324296472640981
20
7.5000000008333139
10
72.324296472640981
20
8.0000000008333156
42
-0.99999999999999989
10
78.324296472640981
20
8.0000000008333156
10
78.324296472640981
20
7.5000000008333174
42
0.41421356237309453
10
80.824296472640981
20
5.0000000008333227
10
81.154174260123767
20
5.0000000008333174
42
0.44147004424347341
10
83.643566108623574
20
7.730061350526567
42
0.060040646877541889
10
79.412149741994838
20
27.380841353883483
42
-0.40414749524430893
10
81.173194098464862
20
31.159469824555465
10
88.178882885722757
20
33.848701790634649
42
-0.42354419705023844
10
92.08744663071829
20
32.033610051152841
42
-0.16896482662457724
10
92.08744663071829
20
-32.033610049486228
42
-0.42354419705023216
10
88.178882885722714
20
-33.848701788967965
10
81.173194098464862
20
-31.159469822888795
42
-0.40414749524430887
10
79.412149741994838
20
-27.380841352216855
42
0.060040646879253458
10
83.64356610867631
20
-7.7300613482893059
42
0.44147004424247238
10
81.154174260166229
20
-4.9999999986130295
10
80.824296472632284
20
-4.9999999986141752
42
0.41421356237207724
10
78.324296472640981
20
-7.4999999986141743
10
78.324296472640981
20
-7.9999999991666826
42
-0.99999999999999989
10
72.324296472640981
20
-7.9999999991666826
10
72.324296472640981
20
-7.4999999986523775
42
0.41421356237411466
10
69.824296472632298
20
-4.9999999986523793
10
69.59704869705763
20
-4.999999998653168
42
0.38311007958314863
10
67.111439608908483
20
-7.2321428336059723
42
-0.24158485529342075
10
33.26228123419655
20
-58.7355928157953
42
0.56179859940484844
10
33.099316507535157
20
-63.857273137834163
42
-0.044882604655628835
10
41.605191541764903
20
-70.576674980544624
42
-0.42958583692688279
10
41.609535365737933
20
-74.9285838274009
10
36.166276171638344
20
-80.105220855268044
42
-0.39673676433211591
10
32.052933018942007
20
-80.12544781929698
42
0.39389385031708773
10
-32.052933988397818
20
-80.125447447913473
42
-0.39673676437591954
0
CIRCLE
5
103
100
AcDbEntity
8
0
100
AcDbCircle
10
-3.8247274228558801e-07
20
-60.749994227687935
30
0
40
2.0000000000000018
210
0
220
0
230
1
0
CIRCLE
5
104
100
AcDbEntity
8
0
100
AcDbCircle
10
-4.1142261864051253e-07
20
-65.124994227687935
30
0
40
2.0000000000000018
210
0
220
0
230
1
0
CIRCLE
5
105
100
AcDbEntity
8
0
100
AcDbCircle
10
-3.535228657574721e-07
20
-56.374994227687949
30
0
40
2.0000000000000018
210
0
220
0
230
1
0
CIRCLE
5
106
100
AcDbEntity
8
0
100
AcDbCircle
10
10.998215430965029
20
-55.291764590108514
30
0
40
2.0000000000000018
210
0
220
0
230
1
0
CIRCLE
5
107
100
AcDbEntity
8
0
100
AcDbCircle
10
11.851735561391974
20
-59.582700197520481
30
0
40
2.0000000000000018
210
0
220
0
230
1
0
CIRCLE
5
108
100
AcDbEntity
8
0
100
AcDbCircle
10
12.70525569181892
20
-63.873635804932448
30
0
40
2.0000000000000018
210
0
220
0
230
1
0
CIRCLE
5
109
100
AcDbEntity
8
0
100
AcDbCircle
10
21.57377596427644
20
-52.083703447275468
30
0
40
2.0000000000000018
210
0
220
0
230
1
0
CIRCLE
5
110
100
AcDbEntity
8
0
100
AcDbCircle
10
23.24801595412751
20
-56.125676413090979
30
0
40
2.0000000000000018
210
0
220
0
230
1
0
CIRCLE
5
111
100
AcDbEntity
8
0
100
AcDbCircle
10
24.922255943978577
20
-60.167649378906489
30
0
40
2.0000000000000018
210
0
220
0
230
1
0
CIRCLE
5
112
100
AcDbEntity
8
0
100
AcDbCircle
10
31.320268385958883
20
-46.874094789806477
30
0
40
2.0000000000000018
210
0
220
0
230
1
0
CIRCLE
5
113
100
AcDbEntity
8
0
100
AcDbCircle
10
33.750888131348688
20
-50.511774359713812
30
0
40
2.0000000000000018
210
0
220
0
230
1
0
CIRCLE
5
114
100
AcDbEntity
8
0
100
AcDbCircle
10
36.1815078767385
20
-54.149453929621117
30
0
40
2.0000000000000018
210
0
220
0
230
1
0
CIRCLE
5
115
100
AcDbEntity
8
0
100
AcDbCircle
10
39.863140458143029
20
-39.86314095682588
30
0
40
2.0000000000000018
210
0
220
0
230
1
0
CIRCLE
5
116
100
AcDbEntity
8
0
100
AcDbCircle
10
42.956732605363527
20
-42.956733144987673
30
0
40
2.0000000000000018
210
0
220
0
230
1
0
CIRCLE
5
117
100
AcDbEntity
8
0
100
AcDbCircle
10
46.050324752584004
20
-46.050325333149473
30
0
40
2.0000000000000018
210
0
220
0
230
1
0
CIRCLE
5
118
100
AcDbEntity
8
0
100
AcDbCircle
10
46.874094397992685
20
-31.320268972346899
30
0
40
2.0000000000000018
210
0
220
0
230
1
0
CIRCLE
5
119
100
AcDbEntity
8
0
100
AcDbCircle
10
50.51177393573262
20
-33.750888765878599
30
0
40
2.0000000000000018
210
0
220
0
230
1
0
CIRCLE
5
120
100
AcDbEntity
8
0
100
AcDbCircle
10
54.149453473472562
20
-36.181508559410297
30
0
40
2.0000000000000018
210
0
220
0
230
1
0
CIRCLE
5
121
100
AcDbEntity
8
0
100
AcDbCircle
10
52.08370317738769
20
-21.573776615835275
30
0
40
2.0000000000000018
210
0
220
0
230
1
0
CIRCLE
5
122
100
AcDbEntity
8
0
100
AcDbCircle
10
56.12567612104592
20
-23.248016659178738
30
0
40
2.0000000000000018
210
0
220
0
230
1
0
CIRCLE
5
123
100
AcDbEntity
8
0
100
AcDbCircle
10
60.167649064704165
20
-24.922256702522194
30
0
40
2.0000000000000018
210
0
220
0
230
1
0
CIRCLE
5
124
100
AcDbEntity
8
0
100
AcDbCircle
10
55.291764452518166
20
-10.998216122655851
30
0
40
2.0000000000000018
210
0
220
0
230
1
0
CIRCLE
5
125
100
AcDbEntity
8
0
100
AcDbCircle
10
59.58270004863445
20
-11.851736309870022
30
0
40
2.0000000000000018
210
0
220
0
230
1
0
CIRCLE
5
126
100
AcDbEntity
8
0
100
AcDbCircle
10
63.873635644750735
20
-12.705256497084195
30
0
40
2.0000000000000018
210
0
220
0
230
1
0
CIRCLE
5
127
100
AcDbEntity
8
0
100
AcDbCircle
10
56.374994227682336
20
-3.5171886904438051e-07
30
0
40
2.0000000000000018
210
0
220
0
230
1
0
CIRCLE
5
128
100
AcDbEntity
8
0
100
AcDbCircle
10
60.749994227682336
20
-3.806687458403879e-07
30
0
40
2.0000000000000018
210
0
220
0
230
1
0
CIRCLE
5
129
100
AcDbEntity
8
0
100
AcDbCircle
10
65.124994227682322
20
-4.0961862246320395e-07
30
0
40
2.0000000000000018
210
0
220
0
230
1
0
CIRCLE
5
130
100
AcDbEntity
8
0
100
AcDbCircle
10
55.2917645901029
20
10.998215432769026
30
0
40
2.0000000000000018
210
0
220
0
230
1
0
CIRCLE
5
131
100
AcDbEntity
8
0
100
AcDbCircle
10
59.582700197514875
20
11.851735563195973
30
0
40
2.0000000000000018
210
0
220
0
230
1
0
CIRCLE
5
132
100
AcDbEntity
8
0
100
AcDbCircle
10
63.873635804926849
20
12.705255693622918
30
0
40
2.0000000000000018
210
0
220
0
230
1
0
CIRCLE
5
133
100
AcDbEntity
8
0
100
AcDbCircle
10
52.083703447269862
20
21.57377596608044
30
0
40
2.0000000000000018
210
0
220
0
230
1
0
CIRCLE
5
134
100
AcDbEntity
8
0
100
AcDbCircle
10
56.12567641308538
20
23.248015955931507
30
0
40
2.0000000000000018
210
0
220
0
230
1
0
CIRCLE
5
135
100
AcDbEntity
8
0
100
AcDbCircle
10
60.167649378900883
20
24.922255945782574
30
0
40
2.0000000000000018
210
0
220
0
230
1
0
CIRCLE
5
136
100
AcDbEntity
8
0
100
AcDbCircle
10
46.874094789800871
20
31.320268387762873
30
0
40
2.0000000000000018
210
0
220
0
230
1
0
CIRCLE
5
137
100
AcDbEntity
8
0
100
AcDbCircle
10
50.511774359708205
20
33.750888133152671
30
0
40
2.0000000000000018
210
0
220
0
230
1
0
CIRCLE
5
138
100
AcDbEntity
8
0
100
AcDbCircle
10
54.149453929615518
20
36.18150787854249
30
0
40
2.0000000000000018
210
0
220
0
230
1
0
CIRCLE
5
139
100
AcDbEntity
8
0
100
AcDbCircle
10
39.863140956820274
20
39.863140459947026
30
0
40
2.0000000000000018
210
0
220
0
230
1
0
CIRCLE
5
140
100
AcDbEntity
8
0
100
AcDbCircle
10
42.956733144982088
20
42.956732607167496
30
0
40
2.0000000000000018
210
0
220
0
230
1
0
CIRCLE
5
141
100
AcDbEntity
8
0
100
AcDbCircle
10
46.050325333143867
20
46.050324754387979
30
0
40
2.0000000000000018
210
0
220
0
230
1
0
CIRCLE
5
142
100
AcDbEntity
8
0
100
AcDbCircle
10
31.320268972341296
20
46.874094399796675
30
0
40
2.0000000000000018
210
0
220
0
230
1
0
CIRCLE
5
143
100
AcDbEntity
8
0
100
AcDbCircle
10
33.750888765872993
20
50.511773937536624
30
0
40
2.0000000000000018
210
0
220
0
230
1
0
CIRCLE
5
144
100
AcDbEntity
8
0
100
AcDbCircle
10
36.181508559404691
20
54.149453475276559
30
0
40
2.0000000000000018
210
0
220
0
230
1
0
CIRCLE
5
145
100
AcDbEntity
8
0
100
AcDbCircle
10
21.573776615829679
20
52.08370317919168
30
0
40
2.0000000000000018
210
0
220
0
230
1
0
CIRCLE
5
146
100
AcDbEntity
8
0
100
AcDbCircle
10
23.248016659173135
20
56.12567612284991
30
0
40
2.0000000000000018
210
0
220
0
230
1
0
CIRCLE
5
147
100
AcDbEntity
8
0
100
AcDbCircle
10
24.922256702516599
20
60.167649066508147
30
0
40
2.0000000000000018
210
0
220
0
230
1
0
CIRCLE
5
148
100
AcDbEntity
8
0
100
AcDbCircle
10
10.998216122650264
20
55.291764454322163
30
0
40
2.0000000000000018
210
0
220
0
230
1
0
CIRCLE
5
149
100
AcDbEntity
8
0
100
AcDbCircle
10
11.851736309864439
20
59.58270005043844
30
0
40
2.0000000000000018
210
0
220
0
230
1
0
CIRCLE
5
150
100
AcDbEntity
8
0
100
AcDbCircle
10
12.705256497078611
20
63.873635646554725
30
0
40
2.0000000000000018
210
0
220
0
230
1
0
CIRCLE
5
151
100
AcDbEntity
8
0
100
AcDbCircle
10
3.5171327071672658e-07
20
56.374994229486333
30
0
40
2.0000000000000018
210
0
220
0
230
1
0
CIRCLE
5
152
100
AcDbEntity
8
0
100
AcDbCircle
10
3.8066314778062546e-07
20
60.749994229486326
30
0
40
2.0000000000000018
210
0
220
0
230
1
0
CIRCLE
5
153
100
AcDbEntity
8
0
100
AcDbCircle
10
4.0961302467133299e-07
20
65.124994229486319
30
0
40
2.0000000000000018
210
0
220
0
230
1
0
CIRCLE
5
154
100
AcDbEntity
8
0
100
AcDbCircle
10
-10.998215432774639
20
55.291764591906897
30
0
40
2.0000000000000018
210
0
220
0
230
1
0
CIRCLE
5
155
100
AcDbEntity
8
0
100
AcDbCircle
10
-11.851735563201586
20
59.582700199318872
30
0
40
2.0000000000000018
210
0
220
0
230
1
0
CIRCLE
5
156
100
AcDbEntity
8
0
100
AcDbCircle
10
-12.70525569362853
20
63.873635806730832
30
0
40
2.0000000000000018
210
0
220
0
230
1
0
CIRCLE
5
157
100
AcDbEntity
8
0
100
AcDbCircle
10
-21.573775966086032
20
52.083703449073866
30
0
40
2.0000000000000018
210
0
220
0
230
1
0
CIRCLE
5
158
100
AcDbEntity
8
0
100
AcDbCircle
10
-23.248015955937102
20
56.125676414889384
30
0
40
2.0000000000000018
210
0
220
0
230
1
0
CIRCLE
5
159
100
AcDbEntity
8
0
100
AcDbCircle
10
-24.922255945788162
20
60.16764938070488
30
0
40
2.0000000000000018
210
0
220
0
230
1
0
CIRCLE
5
160
100
AcDbEntity
8
0
100
AcDbCircle
10
-31.320268387768472
20
46.874094791604875
30
0
40
2.0000000000000018
210
0
220
0
230
1
0
CIRCLE
5
161
100
AcDbEntity
8
0
100
AcDbCircle
10
-33.750888133158277
20
50.511774361512202
30
0
40
2.0000000000000018
210
0
220
0
230
1
0
CIRCLE
5
162
100
AcDbEntity
8
0
100
AcDbCircle
10
-36.181507878548089
20
54.149453931419515
30
0
40
2.0000000000000018
210
0
220
0
230
1
0
CIRCLE
5
163
100
AcDbEntity
8
0
100
AcDbCircle
10
-39.863140459952625
20
39.863140958624285
30
0
40
2.0000000000000018
210
0
220
0
230
1
0
CIRCLE
5
164
100
AcDbEntity
8
0
100
AcDbCircle
10
-42.956732607173109
20
42.956733146786064
30
0
40
2.0000000000000018
210
0
220
0
230
1
0
CIRCLE
5
165
100
AcDbEntity
8
0
100
AcDbCircle
10
-46.050324754393586
20
46.050325334947864
30
0
40
2.0000000000000018
210
0
220
0
230
1
0
CIRCLE
5
166
100
AcDbEntity
8
0
100
AcDbCircle
10
-46.874094399802281
20
31.320268974145293
30
0
40
2.0000000000000018
210
0
220
0
230
1
0
CIRCLE
5
167
100
AcDbEntity
8
0
100
AcDbCircle
10
-50.511773937542216
20
33.75088876767699
30
0
40
2.0000000000000018
210
0
220
0
230
1
0
CIRCLE
5
168
100
AcDbEntity
8
0
100
AcDbCircle
10
-54.149453475282158
20
36.181508561208688
30
0
40
2.0000000000000018
210
0
220
0
230
1
0
CIRCLE
5
169
100
AcDbEntity
8
0
100
AcDbCircle
10
-52.083703179197272
20
21.573776617633698
30
0
40
2.0000000000000018
210
0
220
0
230
1
0
CIRCLE
5
170
100
AcDbEntity
8
0
100
AcDbCircle
10
-56.125676122855516
20
23.248016660977161
30
0
40
2.0000000000000018
210
0
220
0
230
1
0
CIRCLE
5
171
100
AcDbEntity
8
0
100
AcDbCircle
10
-60.167649066513739
20
24.922256704320631
30
0
40
2.0000000000000018
210
0
220
0
230
1
0
CIRCLE
5
172
100
AcDbEntity
8
0
100
AcDbCircle
10
-55.291764454327755
20
10.998216124454267
30
0
40
2.0000000000000018
210
0
220
0
230
1
0
CIRCLE
5
173
100
AcDbEntity
8
0
100
AcDbCircle
10
-59.582700050444046
20
11.851736311668441
30
0
40
2.0000000000000018
210
0
220
0
230
1
0
CIRCLE
5
174
100
AcDbEntity
8
0
100
AcDbCircle
10
-63.873635646560331
20
12.705256498882617
30
0
40
2.0000000000000018
210
0
220
0
230
1
0
CIRCLE
5
175
100
AcDbEntity
8
0
100
AcDbCircle
10
-56.374994229491939
20
3.5351727433376377e-07
30
0
40
2.0000000000000018
210
0
220
0
230
1
0
CIRCLE
5
176
100
AcDbEntity
8
0
100
AcDbCircle
10
-60.749994229491932
20
3.8246715166555423e-07
30
0
40
2.0000000000000018
210
0
220
0
230
1
0
CIRCLE
5
177
100
AcDbEntity
8
0
100
AcDbCircle
10
-65.124994229491918
20
4.1141702882415308e-07
30
0
40
2.0000000000000018
210
0
220
0
230
1
0
CIRCLE
5
178
100
AcDbEntity
8
0
100
AcDbCircle
10
-55.291764591912496
20
-10.998215430970635
30
0
40
2.0000000000000018
210
0
220
0
230
1
0
CIRCLE
5
179
100
AcDbEntity
8
0
100
AcDbCircle
10
-59.582700199324464
20
-11.851735561397581
30
0
40
2.0000000000000018
210
0
220
0
230
1
0
CIRCLE
5
180
100
AcDbEntity
8
0
100
AcDbCircle
10
-63.873635806736438
20
-12.705255691824526
30
0
40
2.0000000000000018
210
0
220
0
230
1
0
CIRCLE
5
181
100
AcDbEntity
8
0
100
AcDbCircle
10
-52.083703449079451
20
-21.573775964282053
30
0
40
2.0000000000000018
210
0
220
0
230
1
0
CIRCLE
5
182
100
AcDbEntity
8
0
100
AcDbCircle
10
-56.125676414894976
20
-23.248015954133123
30
0
40
2.0000000000000018
210
0
220
0
230
1
0
CIRCLE
5
183
100
AcDbEntity
8
0
100
AcDbCircle
10
-60.167649380710479
20
-24.92225594398419
30
0
40
2.0000000000000018
210
0
220
0
230
1
0
CIRCLE
5
184
100
AcDbEntity
8
0
100
AcDbCircle
10
-46.874094791610482
20
-31.320268385964461
30
0
40
2.0000000000000018
210
0
220
0
230
1
0
CIRCLE
5
185
100
AcDbEntity
8
0
100
AcDbCircle
10
-50.511774361517823
20
-33.750888131354266
30
0
40
2.0000000000000018
210
0
220
0
230
1
0
CIRCLE
5
186
100
AcDbEntity
8
0
100
AcDbCircle
10
-54.149453931425114
20
-36.181507876744078
30
0
40
2.0000000000000018
210
0
220
0
230
1
0
CIRCLE
5
187
100
AcDbEntity
8
0
100
AcDbCircle
10
-39.863140958629884
20
-39.863140458148614
30
0
40
2.0000000000000018
210
0
220
0
230
1
0
CIRCLE
5
188
100
AcDbEntity
8
0
100
AcDbCircle
10
-42.95673314679167
20
-42.956732605369119
30
0
40
2.0000000000000018
210
0
220
0
230
1
0
CIRCLE
5
189
100
AcDbEntity
8
0
100
AcDbCircle
10
-46.05032533495347
20
-46.050324752589589
30
0
40
2.0000000000000018
210
0
220
0
230
1
0
CIRCLE
5
190
100
AcDbEntity
8
0
100
AcDbCircle
10
-31.320268974150892
20
-46.874094397998292
30
0
40
2.0000000000000018
210
0
220
0
230
1
0
CIRCLE
5
191
100
AcDbEntity
8
0
100
AcDbCircle
10
-33.750888767682589
20
-50.511773935738219
30
0
40
2.0000000000000018
210
0
220
0
230
1
0
CIRCLE
5
192
100
AcDbEntity
8
0
100
AcDbCircle
10
-36.181508561214287
20
-54.149453473478168
30
0
40
2.0000000000000018
210
0
220
0
230
1
0
CIRCLE
5
193
100
AcDbEntity
8
0
100
AcDbCircle
10
-21.573776617639304
20
-52.083703177393289
30
0
40
2.0000000000000018
210
0
220
0
230
1
0
CIRCLE
5
194
100
AcDbEntity
8
0
100
AcDbCircle
10
-23.248016660982771
20
-56.125676121051512
30
0
40
2.0000000000000018
210
0
220
0
230
1
0
CIRCLE
5
195
100
AcDbEntity
8
0
100
AcDbCircle
10
-24.92225670432623
20
-60.167649064709749
30
0
40
2.0000000000000018
210
0
220
0
230
1
0
CIRCLE
5
196
100
AcDbEntity
8
0
100
AcDbCircle
10
-10.998216124459873
20
-55.291764452523765
30
0
40
2.0000000000000018
210
0
220
0
230
1
0
CIRCLE
5
197
100
AcDbEntity
8
0
100
AcDbCircle
10
-11.851736311674049
20
-59.582700048640049
30
0
40
2.0000000000000018
210
0
220
0
230
1
0
CIRCLE
5
198
100
AcDbEntity
8
0
100
AcDbCircle
10
-12.705256498888222
20
-63.873635644756341
30
0
40
2.0000000000000018
210
0
220
0
230
1
0
CIRCLE
5
199
100
AcDbEntity
8
0
100
AcDbCircle
10
-90.750000000970147
20
8.333334022836425e-10
30
0
40
2
210
0
220
0
230
1
0
CIRCLE
5
200
100
AcDbEntity
8
0
100
AcDbCircle
10
-95.125000000970147
20
8.333334022836425e-10
30
0
40
2
210
0
220
0
230
1
0
CIRCLE
5
201
100
AcDbEntity
8
0
100
AcDbCircle
10
-86.375000000970175
20
8.33337843175741e-10
30
0
40
2
210
0
220
0
230
1
0
CIRCLE
5
202
100
AcDbEntity
8
0
100
AcDbCircle
10
-90.252862005640964
20
-9.4859580407062154
30
0
40
2
210
0
220
0
230
1
0
CIRCLE
5
203
100
AcDbEntity
8
0
100
AcDbCircle
10
-85.901828713404797
20
-9.0286460139102296
30
0
40
2
210
0
220
0
230
1
0
CIRCLE
5
204
100
AcDbEntity
8
0
100
AcDbCircle
10
-94.603895297877173
20
-9.9432700675021994
30
0
40
2
210
0
220
0
230
1
0
CIRCLE
5
205
100
AcDbEntity
8
0
100
AcDbCircle
10
-86.308378854755318
20
-28.043292238693148
30
0
40
2
210
0
220
0
230
1
0
CIRCLE
5
206
100
AcDbEntity
8
0
100
AcDbCircle
10
-82.147506595964046
20
-26.691342888302749
30
0
40
2
210
0
220
0
230
1
0
CIRCLE
5
207
100
AcDbEntity
8
0
100
AcDbCircle
10
-90.469251113546619
20
-29.39524158908354
30
0
40
2
210
0
220
0
230
1
0
CIRCLE
5
208
100
AcDbEntity
8
0
100
AcDbCircle
10
86.308378852815011
20
-28.043292238693155
30
0
40
2
210
0
220
0
230
1
0
CIRCLE
5
209
100
AcDbEntity
8
0
100
AcDbCircle
10
82.147506594023724
20
-26.691342888302771
30
0
40
2
210
0
220
0
230
1
0
CIRCLE
5
210
100
AcDbEntity
8
0
100
AcDbCircle
10
90.469251111606312
20
-29.39524158908355
30
0
40
2
210
0
220
0
230
1
0
CIRCLE
5
211
100
AcDbEntity
8
0
100
AcDbCircle
10
88.766894765622652
20
-18.867985940878363
30
0
40
2
210
0
220
0
230
1
0
CIRCLE
5
212
100
AcDbEntity
8
0
100
AcDbCircle
10
84.487499012412272
20
-17.958372293550671
30
0
40
2
210
0
220
0
230
1
0
CIRCLE
5
213
100
AcDbEntity
8
0
100
AcDbCircle
10
93.046290518833047
20
-19.777599588206062
30
0
40
2
210
0
220
0
230
1
0
CIRCLE
5
214
100
AcDbEntity
8
0
100
AcDbCircle
10
90.252862003700599
20
-9.4859580407062438
30
0
40
2
210
0
220
0
230
1
0
CIRCLE
5
215
100
AcDbEntity
8
0
100
AcDbCircle
10
85.901828711464418
20
-9.0286460139102651
30
0
40
2
210
0
220
0
230
1
0
CIRCLE
5
216
100
AcDbEntity
8
0
100
AcDbCircle
10
94.60389529593678
20
-9.9432700675022296
30
0
40
2
210
0
220
0
230
1
0
CIRCLE
5
217
100
AcDbEntity
8
0
100
AcDbCircle
10
90.749999999029825
20
8.3332010122601464e-10
30
0
40
2
210
0
220
0
230
1
0
CIRCLE
5
218
100
AcDbEntity
8
0
100
AcDbCircle
10
86.374999999029839
20
8.3331619611689078e-10
30
0
40
2
210
0
220
0
230
1
0
CIRCLE
5
219
100
AcDbEntity
8
0
100
AcDbCircle
10
95.124999999029825
20
8.3331956544304e-10
30
0
40
2
210
0
220
0
230
1
0
CIRCLE
5
220
100
AcDbEntity
8
0
100
AcDbCircle
10
90.252862003700614
20
9.4859580423728431
30
0
40
2
210
0
220
0
230
1
0
CIRCLE
5
221
100
AcDbEntity
8
0
100
AcDbCircle
10
85.901828711464447
20
9.0286460155768573
30
0
40
2
210
0
220
0
230
1
0
CIRCLE
5
222
100
AcDbEntity
8
0
100
AcDbCircle
10
94.603895295936809
20
9.9432700691688254
30
0
40
2
210
0
220
0
230
1
0
CIRCLE
5
223
100
AcDbEntity
8
0
100
AcDbCircle
10
88.766894765622709
20
18.867985942544966
30
0
40
2
210
0
220
0
230
1
0
CIRCLE
5
224
100
AcDbEntity
8
0
100
AcDbCircle
10
84.487499012412314
20
17.95837229521727
30
0
40
2
210
0
220
0
230
1
0
CIRCLE
5
225
100
AcDbEntity
8
0
100
AcDbCircle
10
93.046290518833118
20
19.777599589872661
30
0
40
2
210
0
220
0
230
1
0
CIRCLE
5
226
100
AcDbEntity
8
0
100
AcDbCircle
10
86.308378852815025
20
28.043292240359797
30
0
40
2
210
0
220
0
230
1
0
CIRCLE
5
227
100
AcDbEntity
8
0
100
AcDbCircle
10
82.147506594023753
20
26.691342889969402
30
0
40
2
210
0
220
0
230
1
0
CIRCLE
5
228
100
AcDbEntity
8
0
100
AcDbCircle
10
90.469251111606326
20
29.395241590750196
30
0
40
2
210
0
220
0
230
1
0
CIRCLE
5
229
100
AcDbEntity
8
0
100
AcDbCircle
10
28.043292238556319
20
86.308378854618496
30
0
40
2
210
0
220
0
230
1
0
CIRCLE
5
230
100
AcDbEntity
8
0
100
AcDbCircle
10
26.691342888165931
20
82.14750659582721
30
0
40
2
210
0
220
0
230
1
0
CIRCLE
5
231
100
AcDbEntity
8
0
100
AcDbCircle
10
29.39524158894671
20
90.469251113409797
30
0
40
2
210
0
220
0
230
1
0
CIRCLE
5
232
100
AcDbEntity
8
0
100
AcDbCircle
10
18.867985940741544
20
88.766894767426152
30
0
40
2
210
0
220
0
230
1
0
CIRCLE
5
233
100
AcDbEntity
8
0
100
AcDbCircle
10
17.958372293413852
20
84.487499014215786
30
0
40
2
210
0
220
0
230
1
0
CIRCLE
5
234
100
AcDbEntity
8
0
100
AcDbCircle
10
19.77759958806924
20
93.046290520636575
30
0
40
2
210
0
220
0
230
1
0
CIRCLE
5
235
100
AcDbEntity
8
0
100
AcDbCircle
10
9.4859580405694537
20
90.252862005504113
30
0
40
2
210
0
220
0
230
1
0
CIRCLE
5
236
100
AcDbEntity
8
0
100
AcDbCircle
10
9.0286460137734732
20
85.901828713267918
30
0
40
2
210
0
220
0
230
1
0
CIRCLE
5
237
100
AcDbEntity
8
0
100
AcDbCircle
10
9.9432700673654413
20
94.603895297740308
30
0
40
2
210
0
220
0
230
1
0
CIRCLE
5
238
100
AcDbEntity
8
0
100
AcDbCircle
10
-9.7014177330445208e-10
20
90.750000000833325
30
0
40
2
210
0
220
0
230
1
0
CIRCLE
5
239
100
AcDbEntity
8
0
100
AcDbCircle
10
-9.7013830385750012e-10
20
86.375000000833339
30
0
40
2
210
0
220
0
230
1
0
CIRCLE
5
240
100
AcDbEntity
8
0
100
AcDbCircle
10
-9.7014080185930553e-10
20
95.125000000833325
30
0
40
2
210
0
220
0
230
1
0
CIRCLE
5
241
100
AcDbEntity
8
0
100
AcDbCircle
10
-9.4859580425096581
20
90.252862005504142
30
0
40
2
210
0
220
0
230
1
0
CIRCLE
5
242
100
AcDbEntity
8
0
100
AcDbCircle
10
-9.0286460157136741
20
85.901828713267975
30
0
40
2
210
0
220
0
230
1
0
CIRCLE
5
243
100
AcDbEntity
8
0
100
AcDbCircle
10
-9.9432700693056404
20
94.603895297740351
30
0
40
2
210
0
220
0
230
1
0
CIRCLE
5
244
100
AcDbEntity
8
0
100
AcDbCircle
10
-18.867985942681756
20
88.766894767426209
30
0
40
2
210
0
220
0
230
1
0
CIRCLE
5
245
100
AcDbEntity
8
0
100
AcDbCircle
10
-17.95837229535406
20
84.487499014215814
30
0
40
2
210
0
220
0
230
1
0
CIRCLE
5
246
100
AcDbEntity
8
0
100
AcDbCircle
10
-19.777599590009448
20
93.046290520636603
30
0
40
2
210
0
220
0
230
1
0
CIRCLE
5
247
100
AcDbEntity
8
0
100
AcDbCircle
10
-28.043292240496612
20
86.30837885461851
30
0
40
2
210
0
220
0
230
1
0
CIRCLE
5
248
100
AcDbEntity
8
0
100
AcDbCircle
10
-26.691342890106217
20
82.147506595827224
30
0
40
2
210
0
220
0
230
1
0
CIRCLE
5
249
100
AcDbEntity
8
0
100
AcDbCircle
10
-29.395241590887004
20
90.469251113409811
30
0
40
2
210
0
220
0
230
1
0
CIRCLE
5
250
100
AcDbEntity
8
0
100
AcDbCircle
10
-86.308378854755318
20
28.043292240359825
30
0
40
2
210
0
220
0
230
1
0
CIRCLE
5
251
100
AcDbEntity
8
0
100
AcDbCircle
10
-82.147506595964046
20
26.691342889969441
30
0
40
2
210
0
220
0
230
1
0
CIRCLE
5
252
100
AcDbEntity
8
0
100
AcDbCircle
10
-90.469251113546619
20
29.395241590750221
30
0
40
2
210
0
220
0
230
1
0
CIRCLE
5
253
100
AcDbEntity
8
0
100
AcDbCircle
10
-90.252862005640949
20
9.4859580423729604
30
0
40
2
210
0
220
0
230
1
0
CIRCLE
5
254
100
AcDbEntity
8
0
100
AcDbCircle
10
-85.901828713404768
20
9.0286460155769781
30
0
40
2
210
0
220
0
230
1
0
CIRCLE
5
255
100
AcDbEntity
8
0
100
AcDbCircle
10
-94.603895297877159
20
9.9432700691689462
30
0
40
2
210
0
220
0
230
1
0
CIRCLE
5
256
100
AcDbEntity
8
0
100
AcDbCircle
10
-29.812270907249896
20
-64.602657902374119
30
0
40
2.0000000000000018
210
0
220
0
230
1
0
CIRCLE
5
257
100
AcDbEntity
8
0
100
AcDbCircle
10
-27.56833659345105
20
-68.358371389230655
30
0
40
2.0000000000000018
210
0
220
0
230
1
0
CIRCLE
5
258
100
AcDbEntity
8
0
100
AcDbCircle
10
-25.324402279652205
20
-72.114084876087176
30
0
40
2.0000000000000018
210
0
220
0
230
1
0
CIRCLE
5
259
100
AcDbEntity
8
0
100
AcDbCircle
10
-38.242688893807596
20
-70.727715013237685
30
0
40
2.0000000000000018
210
0
220
0
230
1
0
CIRCLE
5
260
100
AcDbEntity
8
0
100
AcDbCircle
10
-35.364206989622687
20
-74.022402696050719
30
0
40
2.0000000000000018
210
0
220
0
230
1
0
CIRCLE
5
261
100
AcDbEntity
8
0
100
AcDbCircle
10
-32.485725085437771
20
-77.317090378863753
30
0
40
2.0000000000000018
210
0
220
0
230
1
0
CIRCLE
5
262
100
AcDbEntity
8
0
100
AcDbCircle
10
38.242687996683955
20
-70.727715519350156
30
0
40
2.0000000000000018
210
0
220
0
230
1
0
CIRCLE
5
263
100
AcDbEntity
8
0
100
AcDbCircle
10
35.364206048896392
20
-74.022403164068692
30
0
40
2.0000000000000018
210
0
220
0
230
1
0
CIRCLE
5
264
100
AcDbEntity
8
0
100
AcDbCircle
10
32.485724101108829
20
-77.317090808787242
30
0
40
2.0000000000000018
210
0
220
0
230
1
0
CIRCLE
5
265
100
AcDbEntity
8
0
100
AcDbCircle
10
29.812270091186669
20
-64.602658296916559
30
0
40
2.0000000000000018
210
0
220
0
230
1
0
CIRCLE
5
266
100
AcDbEntity
8
0
100
AcDbCircle
10
27.568335727683845
20
-68.358371754076344
30
0
40
2.0000000000000018
210
0
220
0
230
1
0
CIRCLE
5
267
100
AcDbEntity
8
0
100
AcDbCircle
10
25.324401364181021
20
-72.11408521123613
30
0
40
2.0000000000000018
210
0
220
0
230
1
0
CIRCLE
5
268
100
AcDbEntity
8
0
100
AcDbCircle
10
-75.75000050331748
20
8.7275859085430709e-10
30
0
40
1.9999999999999976
210
0
220
0
230
1
0
CIRCLE
5
269
100
AcDbEntity
8
0
100
AcDbCircle
10
-80.875000252102907
20
8.7273710175720793e-10
30
0
40
1.9999999999999969
210
0
220
0
230
1
0
CIRCLE
5
270
100
AcDbEntity
8
0
100
AcDbCircle
10
-70.625000754532039
20
8.7278517772047043e-10
30
0
40
2.0000000000000009
210
0
220
0
230
1
0
CIRCLE
5
271
100
AcDbEntity
8
0
100
AcDbCircle
10
75.750000501507884
20
9.2563051788375299e-10
30
0
40
1.9999999999999976
210
0
220
0
230
1
0
CIRCLE
5
272
100
AcDbEntity
8
0
100
AcDbCircle
10
70.625000752722443
20
9.256045586490437e-10
30
0
40
2.0000000000000009
210
0
220
0
230
1
0
CIRCLE
5
273
100
AcDbEntity
8
0
100
AcDbCircle
10
80.875000250293297
20
9.2565137934939851e-10
30
0
40
1.9999999999999969
210
0
220
0
230
1
0
CIRCLE
5
274
100
AcDbEntity
8
0
100
AcDbCircle
10
-9.3122765916071868e-10
20
75.750000503311867
30
0
40
1.9999999999999976
210
0
220
0
230
1
0
CIRCLE
5
275
100
AcDbEntity
8
0
100
AcDbCircle
10
-9.312020137417361e-10
20
70.62500075452644
30
0
40
2.0000000000000009
210
0
220
0
230
1
0
CIRCLE
5
276
100
AcDbEntity
8
0
100
AcDbCircle
10
-9.3124820681063718e-10
20
80.875000252097323
30
0
40
1.9999999999999969
210
0
220
0
230
1
0
CIRCLE
5
277
100
AcDbEntity
8
0
100
AcDbCircle
10
-72.154324639519785
20
-22.999999999166665
30
0
40
1.6000000000000032
210
0
220
0
230
1
0
CIRCLE
5
278
100
AcDbEntity
8
0
100
AcDbCircle
10
-72.154324639519757
20
23.000000000833339
30
0
40
1.6000000000000016
210
0
220
0
230
1
0
CIRCLE
5
279
100
AcDbEntity
8
0
100
AcDbCircle
10
-8.0000000009701413
20
75.324296474444481
30
0
40
1.6000000000000003
210
0
220
0
230
1
0
CIRCLE
5
280
100
AcDbEntity
8
0
100
AcDbCircle
10
7.9999999990298596
20
75.324296474444481
30
0
40
1.6000000000000005
210
0
220
0
230
1
0
CIRCLE
5
281
100
AcDbEntity
8
0
100
AcDbCircle
10
75.324296472640981
20
-7.9999999991666826
30
0
40
1.6000000000000003
210
0
220
0
230
1
0
CIRCLE
5
282
100
AcDbEntity
8
0
100
AcDbCircle
10
75.324296472640981
20
8.0000000008333156
30
0
40
1.6000000000000003
210
0
220
0
230
1
0
LINE
5
283
100
AcDbEntity
8
0
100
AcDbLine
10
-5.0000000009701617
20
-4.9999999991666675
30
0
11
4.9999999990298356
21
5.0000000008333325
31
0
0
LINE
5
284
100
AcDbEntity
8
0
100
AcDbLine
10
4.9999999990298356
20
-4.9999999991666675
30
0
11
-5.0000000009701617
21
5.0000000008333325
31
0
0
LINE
5
285
100
AcDbEntity
8
0
100
AcDbLine
10
-5.0000006838694162
20
-119.4999942702278
30
0
11
4.9999993161305838
21
-109.4999942702278
31
0
0
LINE
5
286
100
AcDbEntity
8
0
100
AcDbLine
10
4.9999993161305838
20
-119.4999942702278
30
0
11
-5.0000006838694162
21
-109.4999942702278
31
0
0
LWPOLYLINE
5
287
100
AcDbEntity
8
0
100
AcDbPolyline
90
11
70
1
43
0.0
10
-45.519220240263046
20
20.000000030772856
10
-36.426673420931735
20
20.000000026151202
10
-11.499999718640716
20
19.99999998229605
42
0.4142135623730786
10
-9.9999997160016658
20
21.499999979656927
10
-9.9999997123233779
20
23.59063170037188
10
-9.999999717617218
20
31.317631691002642
10
-9.9999997214411369
20
37.317631690793093
10
-9.9999997309519415
20
45.044631688894299
10
-9.9999997373177916
20
51.224988045809503
42
0.48047832176005151
10
-11.828571194479856
20
52.688559292116267
42
0.22416929546920872
10
-48.196821735040849
20
24.352941330304979
42
0.55891893261802272
0
ARC
5
288
100
AcDbEntity
8
0
100
AcDbCircle
10
-9.0480097234556089e-10
20
8.9919919271881267e-10
30
0
40
53.999994228384608
210
0
220
-0
230
1
100
AcDbArc
50
11.307730730708434
51
77.346896995700362
0
LWPOLYLINE
5
289
100
AcDbEntity
8
0
100
AcDbPolyline
90
8
70
1
43
0.0
10
-11.499999692560031
20
7.0000000008390559
10
-33.426673420935558
20
7.0000000008145573
42
-0.41421356237365348
10
-36.426673420938918
20
10.000000000816931
10
-36.426673420935927
20
13.090631700448565
42
-0.41421356237291751
10
-33.426673420935934
20
16.090631700446743
10
-11.499999697467086
20
16.090631700446746
42
-0.41421356213719923
10
-9.9999996974670857
20
14.590631701654839
10
-9.9999996925617101
20
8.5000000020471536
42
-0.41421356260866288
0
LWPOLYLINE
5
290
100
AcDbEntity
8
0
100
AcDbPolyline
90
8
70
1
43
0.0
10
-11.499999674629926
20
-6.9999999991609467
10
-33.426673420929355
20
-6.9999999991854365
42
0.41421356237253665
10
-36.426673420926015
20
-9.9999999991830695
10
-36.426673420928438
20
-13.090368299550867
42
0.41421356237332635
10
-33.426673420928445
20
-16.090368299553237
10
-11.499999673668334
20
-16.090368299553251
42
0.41421356241925972
10
-9.9999996736683308
20
-14.590368299316838
10
-9.9999996746282456
20
-8.4999999989245314
42
0.41421356232725876
0
LWPOLYLINE
5
291
100
AcDbEntity
8
0
100
AcDbPolyline
90
4
70
1
43
0.0
10
-164.32656338317472
20
-98.011133992184341
10
-144.32656338317474
20
-98.011133992184341
10
-144.32656338317474
20
-107.01113399218436
10
-164.32656338317472
20
-107.01113399218436
0
LINE
5
292
100
AcDbEntity
8
1
100
AcDbLine
10
-164.32656338317472
20
-98.011133992184341
30
0
11
-144.32656338317474
21
-107.01113399218436
31
0
0
LINE
5
293
100
AcDbEntity
8
1
100
AcDbLine
10
-144.32656338317474
20
-98.011133992184341
30
0
11
-164.32656338317472
21
-107.01113399218436
31
0
0
LINE
5
294
100
AcDbEntity
8
0
100
AcDbLine
10
10.000000318712834
20
23.590631705362
30
0
11
10.000000320383686
21
17.590631705859565
31
0
0
LINE
5
295
100
AcDbEntity
8
0
100
AcDbLine
10
10.000000311724689
20
37.317631705411806
30
0
11
10.000000313692814
21
31.317631705747782
31
0
0
LINE
5
296
100
AcDbEntity
8
0
100
AcDbLine
10
11.500000062185149
20
10.000000000399542
30
0
11
20.500000260373248
21
10.000000000399542
31
0
0
LINE
5
297
100
AcDbEntity
8
0
100
AcDbLine
10
50.00999311342612
20
7.000000000907769
30
0
11
25.000000260376602
21
7.0000000008798295
31
0
0
ARC
5
298
100
AcDbEntity
8
0
100
AcDbCircle
10
11.500000305288955
20
51.224987916348809
30
0
40
1.5000000000000144
210
0
220
-0
230
1
100
AcDbArc
50
77.346896995700334
51
180
0
ARC
5
299
100
AcDbEntity
8
0
100
AcDbCircle
10
50.009993113422773
20
10.000000000907763
30
0
40
2.9999999999999938
210
0
220
0
230
1
100
AcDbArc
50
-89.99999999993608
51
11.307730730708533
0
LINE
5
300
100
AcDbEntity
8
0
100
AcDbLine
10
10.000000343876431
20
20.590368294706444
30
0
11
-9.9999996561235687
21
20.590368314023312
31
0
0
LINE
5
301
100
AcDbEntity
8
0
100
AcDbLine
10
10.000000330618303
20
6.8633682947064445
30
0
11
-9.9999996693816975
21
6.8633683140233082
31
0
0
LINE
5
302
100
AcDbEntity
8
0
100
AcDbLine
10
-9.9999996491391272
20
34.317368312295415
30
0
11
10.000000353342598
21
34.317368294654244
31
0
0
LINE
5
303
100
AcDbEntity
8
0
100
AcDbLine
10
-9.9999996370311131
20
48.044368312295411
30
0
11
10.000000365450605
21
48.044368294654241
31
0
0
LINE
5
304
100
AcDbEntity
8
0
100
AcDbLine
10
17.500000295205304
20
-9.9999999986622115
30
0
11
17.500000290665266
21
10.000000000399542
31
0
0
LINE
5
305
100
AcDbEntity
8
0
100
AcDbLine
10
13.000000193715096
20
0
30
0
11
22.000000327825546
21
0
31
0
0
LINE
5
306
100
AcDbEntity
8
0
100
AcDbLine
10
-75.75000050331748
20
8.7275859085430709e-10
30
0
11
-80.875000252102907
21
8.7273710175720793e-10
31
0
0
LINE
5
307
100
AcDbEntity
8
0
100
AcDbLine
10
-70.625000754532039
20
8.7278517772047043e-10
30
0
11
-75.75000050331748
21
8.7275859085430709e-10
31
0
0
LINE
5
308
100
AcDbEntity
8
0
100
AcDbLine
10
10.000000149011612
20
45.000000670552254
30
0
11
10.000000311724689
21
37.317631705411806
31
0
0
LINE
5
309
100
AcDbEntity
8
0
100
AcDbLine
10
10.000000313692814
20
31.317631705747782
30
0
11
10.000000318712834
21
23.590631705362
31
0
0
LINE
5
310
100
AcDbEntity
8
0
100
AcDbLine
10
10.000000062185151
20
11.500000063988647
30
0
11
10.000000320383686
21
17.590631705859565
31
0
0
ARC
5
311
100
AcDbEntity
8
0
100
AcDbCircle
10
11.500000062185149
20
11.500000000399544
30
0
40
1.5000000000000004
210
0
220
0
230
1
100
AcDbArc
50
179.99999758516347
51
270
0
LINE
5
312
100
AcDbEntity
8
0
100
AcDbLine
10
20.500000260373248
20
10.000000000399542
30
0
11
22.000000260373248
21
10.000000000401219
31
0
0
ARC
5
313
100
AcDbEntity
8
0
100
AcDbCircle
10
22.000000260374925
20
8.5000000004012186
30
0
40
1.4999999999999991
210
-0
220
0
230
1
100
AcDbArc
50
0
51
90.000000000064048
0
ARC
5
314
100
AcDbEntity
8
0
100
AcDbCircle
10
25.000000260374925
20
8.5000000008798295
30
0
40
1.4999999999999991
210
0
220
0
230
1
100
AcDbArc
50
180
51
270.00000000006401
0
LINE
5
315
100
AcDbEntity
8
0
100
AcDbLine
10
10.000000149011612
20
45.000000670552254
30
0
11
10.000000305288959
21
51.224987915909956
31
0
0
ARC
5
316
100
AcDbEntity
8
0
100
AcDbCircle
10
25.000000260374925
20
-8.5000000008798295
30
0
40
1.5000000000000013
210
0
220
-0
230
1
100
AcDbArc
50
89.999999999935952
51
180
0
ARC
5
317
100
AcDbEntity
8
0
100
AcDbCircle
10
22.000000260374925
20
-8.5000000004012186
30
0
40
1.5000000000000002
210
0
220
0
230
1
100
AcDbArc
50
-90.000000000064077
51
0
0
LINE
5
318
100
AcDbEntity
8
0
100
AcDbLine
10
20.500000260373248
20
-10.000000000399542
30
0
11
22.000000260373248
21
-10.000000000401219
31
0
0
LINE
5
319
100
AcDbEntity
8
0
100
AcDbLine
10
11.500000062185149
20
-10.000000000399542
30
0
11
20.500000260373248
21
-10.000000000399542
31
0
0
ARC
5
320
100
AcDbEntity
8
0
100
AcDbCircle
10
11.500000062185149
20
-11.500000000399544
30
0
40
1.5000000000000013
210
0
220
-0
230
1
100
AcDbArc
50
90
51
180.0000024148365
0
LINE
5
321
100
AcDbEntity
8
0
100
AcDbLine
10
10.000000062185151
20
-11.500000063988647
30
0
11
10.000000320383686
21
-17.590631705859565
31
0
0
LINE
5
322
100
AcDbEntity
8
0
100
AcDbLine
10
10.000000318712834
20
-23.590631705362
30
0
11
10.000000320383686
21
-17.590631705859565
31
0
0
LINE
5
323
100
AcDbEntity
8
0
100
AcDbLine
10
10.000000313692814
20
-31.317631705747782
30
0
11
10.000000318712834
21
-23.590631705362
31
0
0
LINE
5
324
100
AcDbEntity
8
0
100
AcDbLine
10
10.000000311724689
20
-37.317631705411806
30
0
11
10.000000313692814
21
-31.317631705747782
31
0
0
LINE
5
325
100
AcDbEntity
8
0
100
AcDbLine
10
10.000000149011612
20
-45.000000670552254
30
0
11
10.000000311724689
21
-37.317631705411806
31
0
0
LINE
5
326
100
AcDbEntity
8
0
100
AcDbLine
10
10.000000149011612
20
-45.000000670552254
30
0
11
10.000000305288959
21
-51.224987915909956
31
0
0
ARC
5
327
100
AcDbEntity
8
0
100
AcDbCircle
10
11.500000305288955
20
-51.224987916348809
30
0
40
1.4999999999999969
210
0
220
0
230
1
100
AcDbArc
50
180
51
282.65310300429968
0
ARC
5
328
100
AcDbEntity
8
0
100
AcDbCircle
10
-9.0480067882481308e-10
20
-8.9919919271881267e-10
30
0
40
53.999994228384594
210
-0
220
0
230
1
100
AcDbArc
50
282.65310300429968
51
348.69226926929156
0
ARC
5
329
100
AcDbEntity
8
0
100
AcDbCircle
10
50.009993113422773
20
-10.000000000907763
30
0
40
2.999999999999996
210
0
220
0
230
1
100
AcDbArc
50
-11.307730730708508
51
89.99999999993608
0
LINE
5
330
100
AcDbEntity
8
0
100
AcDbLine
10
50.00999311342612
20
-7.000000000907769
30
0
11
25.000000260376602
21
-7.0000000008798295
31
0
0
LWPOLYLINE
5
331
100
AcDbEntity
8
0
100
AcDbPolyline
90
11
70
1
43
0.0
10
-9.999999716001664
20
-21.499999979656927
10
-9.9999997123233797
20
-23.59063170037188
10
-9.9999997176172162
20
-31.317631691002642
10
-9.9999997214411351
20
-37.317631690793093
10
-9.9999997309519415
20
-45.044631688894299
10
-9.9999997373178022
20
-51.224988045809496
42
-0.48047832176005101
10
-11.828571194479846
20
-52.688559292116267
42
-0.22416929546920877
10
-48.196821735040842
20
-24.352941330304976
42
-0.55891893261802272
10
-45.519220240263046
20
-20.000000030772856
10
-36.426673420931735
20
-20.000000026151202
10
-11.499999718640716
20
-19.999999982296046
42
-0.4142135623730786
0
ARC
5
332
100
AcDbEntity
8
0
100
AcDbCircle
10
-138.59902871756807
20
8.5000000008798295
30
0
40
1.5000000000000036
210
0
220
0
230
1
100
AcDbArc
50
180
51
270.00000000006401
0
ARC
5
333
100
AcDbEntity
8
0
100
AcDbCircle
10
-141.59902871756805
20
8.5000000004012186
30
0
40
1.4999999999999858
210
-0
220
0
230
1
100
AcDbArc
50
0
51
90.000000000065143
0
LINE
5
334
100
AcDbEntity
8
0
100
AcDbLine
10
-143.09902871756975
20
10.000000000399542
30
0
11
-141.59902871756975
21
10.000000000401219
31
0
0
LINE
5
335
100
AcDbEntity
8
0
100
AcDbLine
10
-152.09902891575783
20
10.000000000399542
30
0
11
-143.09902871756975
21
10.000000000399542
31
0
0
ARC
5
336
100
AcDbEntity
8
0
100
AcDbCircle
10
-152.09902891575783
20
11.500000000399544
30
0
40
1.5000000000000049
210
0
220
0
230
1
100
AcDbArc
50
179.99999758516347
51
270
0
LINE
5
337
100
AcDbEntity
8
0
100
AcDbLine
10
-153.59902891575783
20
11.500000063988647
30
0
11
-153.5990286575593
21
17.590631705859565
31
0
0
LINE
5
338
100
AcDbEntity
8
0
100
AcDbLine
10
-153.59902865923016
20
23.590631705362
30
0
11
-153.5990286575593
21
17.590631705859565
31
0
0
LINE
5
339
100
AcDbEntity
8
0
100
AcDbLine
10
-153.59902866425017
20
31.317631705747782
30
0
11
-153.59902865923016
21
23.590631705362
31
0
0
LINE
5
340
100
AcDbEntity
8
0
100
AcDbLine
10
-153.59902866621832
20
37.317631705411806
30
0
11
-153.59902866425017
21
31.317631705747782
31
0
0
LINE
5
341
100
AcDbEntity
8
0
100
AcDbLine
10
-153.59902882893138
20
45.000000670552254
30
0
11
-153.59902866621832
21
37.317631705411806
31
0
0
LINE
5
342
100
AcDbEntity
8
0
100
AcDbLine
10
-153.59902882893138
20
45.000000670552254
30
0
11
-153.59902867265404
21
51.224987954006082
31
0
0
ARC
5
343
100
AcDbEntity
8
0
100
AcDbCircle
10
-152.09902867265404
20
51.224987916348809
30
0
40
1.5000000000000158
210
0
220
-0
230
1
100
AcDbArc
50
77.346896995699993
51
179.99999879258175
0
ARC
5
344
100
AcDbEntity
8
0
100
AcDbCircle
10
-163.5990289788478
20
8.9919919271881267e-10
30
0
40
53.999994228384608
210
0
220
-0
230
1
100
AcDbArc
50
11.307730730708434
51
77.346896995700362
0
ARC
5
345
100
AcDbEntity
8
0
100
AcDbCircle
10
-113.58903586452023
20
10.000000000907763
30
0
40
2.9999999999999938
210
0
220
0
230
1
100
AcDbArc
50
-89.99999999993598
51
11.307730730708533
0
LINE
5
346
100
AcDbEntity
8
0
100
AcDbLine
10
-113.58903586451687
20
7.000000000907769
30
0
11
-138.5990287175664
21
7.0000000008798295
31
0
0
LWPOLYLINE
5
347
100
AcDbEntity
8
0
100
AcDbPolyline
90
11
70
1
43
0.0
10
-173.59902869394466
20
21.499999979656927
10
-173.59902869026638
20
23.59063170037188
10
-173.59902869556021
20
31.317631691002642
10
-173.59902869938412
20
37.317631690793093
10
-173.59902870889493
20
45.044631688894299
10
-173.59902871526077
20
51.224988045809503
42
0.48047832176004834
10
-175.42760017242284
20
52.688559292116267
42
0.2241692954692088
10
-211.79585071298385
20
24.352941330304979
42
0.5589189326180255
10
-209.11824921820602
20
20.000000030772856
10
-200.02570239887473
20
20.000000026151202
10
-175.09902869658373
20
19.99999998229605
42
0.41421356237308204
0
LINE
5
348
100
AcDbEntity
8
0
100
AcDbLine
10
-150.5990287842279
20
0
30
0
11
-141.59902865011745
21
0
31
0
0
ARC
5
349
100
AcDbEntity
8
0
100
AcDbCircle
10
-138.59902871756807
20
-8.5000000008798295
30
0
40
1.5000000000000013
210
0
220
-0
230
1
100
AcDbArc
50
89.999999999935952
51
180
0
ARC
5
350
100
AcDbEntity
8
0
100
AcDbCircle
10
-141.59902871756805
20
-8.5000000004012186
30
0
40
1.5000000000000002
210
0
220
0
230
1
100
AcDbArc
50
-90.000000000065143
51
0
0
LINE
5
351
100
AcDbEntity
8
0
100
AcDbLine
10
-143.09902871756975
20
-10.000000000399542
30
0
11
-141.59902871756975
21
-10.000000000401219
31
0
0
LINE
5
352
100
AcDbEntity
8
0
100
AcDbLine
10
-152.09902891575783
20
-10.000000000399542
30
0
11
-143.09902871756975
21
-10.000000000399542
31
0
0
ARC
5
353
100
AcDbEntity
8
0
100
AcDbCircle
10
-152.09902891575783
20
-11.500000000399544
30
0
40
1.5000000000000013
210
0
220
-0
230
1
100
AcDbArc
50
90
51
180.0000024148365
0
LINE
5
354
100
AcDbEntity
8
0
100
AcDbLine
10
-153.59902891575783
20
-11.500000063988647
30
0
11
-153.5990286575593
21
-17.590631705859565
31
0
0
LINE
5
355
100
AcDbEntity
8
0
100
AcDbLine
10
-153.59902865923016
20
-23.590631705362
30
0
11
-153.5990286575593
21
-17.590631705859565
31
0
0
LINE
5
356
100
AcDbEntity
8
0
100
AcDbLine
10
-153.59902866425017
20
-31.317631705747782
30
0
11
-153.59902865923016
21
-23.590631705362
31
0
0
LINE
5
357
100
AcDbEntity
8
0
100
AcDbLine
10
-153.59902866621832
20
-37.317631705411806
30
0
11
-153.59902866425017
21
-31.317631705747782
31
0
0
LINE
5
358
100
AcDbEntity
8
0
100
AcDbLine
10
-153.59902882893138
20
-45.000000670552254
30
0
11
-153.59902866621832
21
-37.317631705411806
31
0
0
LINE
5
359
100
AcDbEntity
8
0
100
AcDbLine
10
-153.59902882893138
20
-45.000000670552254
30
0
11
-153.59902867265404
21
-51.224987954006082
31
0
0
ARC
5
360
100
AcDbEntity
8
0
100
AcDbCircle
10
-152.09902867265404
20
-51.224987916348809
30
0
40
1.500000000000004
210
0
220
0
230
1
100
AcDbArc
50
180.00000120741828
51
282.65310300430002
0
ARC
5
361
100
AcDbEntity
8
0
100
AcDbCircle
10
-163.5990289788478
20
-8.9919919271881267e-10
30
0
40
53.999994228384608
210
-0
220
0
230
1
100
AcDbArc
50
282.65310300429968
51
348.69226926929156
0
ARC
5
362
100
AcDbEntity
8
0
100
AcDbCircle
10
-113.58903586452023
20
-10.000000000907763
30
0
40
3.0000000000000049
210
0
220
0
230
1
100
AcDbArc
50
-11.307730730708508
51
89.999999999935952
0
LINE
5
363
100
AcDbEntity
8
0
100
AcDbLine
10
-113.58903586451687
20
-7.000000000907769
30
0
11
-138.5990287175664
21
-7.0000000008798295
31
0
0
LWPOLYLINE
5
364
100
AcDbEntity
8
0
100
AcDbPolyline
90
11
70
1
43
0.0
10
-173.59902869394466
20
-21.499999979656927
10
-173.59902869026638
20
-23.59063170037188
10
-173.59902869556021
20
-31.317631691002642
10
-173.59902869938412
20
-37.317631690793093
10
-173.59902870889493
20
-45.044631688894299
10
-173.59902871526083
20
-51.224988045809503
42
-0.48047832176004834
10
-175.42760017242284
20
-52.688559292116253
42
-0.22416929546920877
10
-211.79585071298385
20
-24.352941330304986
42
-0.5589189326180255
10
-209.11824921820602
20
-20.000000030772856
10
-200.02570239887473
20
-20.000000026151202
10
-175.09902869658373
20
-19.999999982296067
42
-0.41421356237308204
0
ENDSEC
0
SECTION
2
OBJECTS
0
DICTIONARY
5
C
100
AcDbDictionary
3
ACAD_GROUP
350
D
3
ACAD_MLINESTYLE
350
17
0
DICTIONARY
5
D
100
AcDbDictionary
0
DICTIONARY
5
1A
330
C
100
AcDbDictionary
0
DICTIONARY
5
17
100
AcDbDictionary
0
ENDSEC
0
EOF
