<?xml version="1.0" encoding="UTF-8" standalone="yes"?>
<!-- Created with sK1/UniConvertor (http://sk1project.org/) -->
<svg xmlns="http://www.w3.org/2000/svg" xmlns:xlink="http://www.w3.org/1999/xlink"
  width="595.276pt" height="841.89pt" viewBox="0 0 595.276 841.89"
  fill-rule="evenodd">
<g>
<path style="stroke:#000000; stroke-width:0.850394; stroke-linejoin:round; stroke-linecap:round; fill:none" d="M 35.9265 844.19L 35.9265 839.59L -35.9265 839.59L -35.9265 844.19L -5.63184 877.447L -0.206632 875.889L 0.206632 875.889L 5.63184 877.447L 35.9265 844.19z"/>
<path style="stroke:#000000; stroke-width:0.850394; stroke-linejoin:round; stroke-linecap:round; fill:none" d="M -1.7 875.69C -1.7 874.862 -2.37205 874.19 -3.2 874.19C -4.02796 874.19 -4.7 874.862 -4.7 875.69C -4.7 876.518 -4.02796 877.19 -3.2 877.19C -2.37205 877.19 -1.7 876.518 -1.7 875.69z"/>
<path style="stroke:#000000; stroke-width:0.850394; stroke-linejoin:round; stroke-linecap:round; fill:none" d="M 4.7 875.69C 4.7 874.862 4.02796 874.19 3.2 874.19C 2.37205 874.19 1.7 874.862 1.7 875.69C 1.7 876.518 2.37205 877.19 3.2 877.19C 4.02796 877.19 4.7 876.518 4.7 875.69z"/>
<path style="stroke:#000000; stroke-width:0.850394; stroke-linejoin:round; stroke-linecap:round; fill:none" d="M -32.4 841.89C -32.4 841.007 -33.1168 840.29 -34 840.29C -34.8832 840.29 -35.6 841.007 -35.6 841.89C -35.6 842.773 -34.8832 843.49 -34 843.49C -33.1168 843.49 -32.4 842.773 -32.4 841.89z"/>
<path style="stroke:#000000; stroke-width:0.850394; stroke-linejoin:round; stroke-linecap:round; fill:none" d="M 35.6 841.89C 35.6 841.007 34.8832 840.29 34 840.29C 33.1168 840.29 32.4 841.007 32.4 841.89C 32.4 842.773 33.1168 843.49 34 843.49C 34.8832 843.49 35.6 842.773 35.6 841.89z"/>
<path style="stroke:#000000; stroke-width:0.850394; stroke-linejoin:round; stroke-linecap:round; fill:none" d="M 8 855.89L 8 835.89L -8 835.89L -8 855.89L 8 855.89z"/>
<path style="stroke:#000000; stroke-width:0.850394; stroke-linejoin:round; stroke-linecap:round; fill:none" d="M -34 841.89L -32.8686 840.758"/>
<path style="stroke:#000000; stroke-width:0.850394; stroke-linejoin:round; stroke-linecap:round; fill:none" d="M -34 841.89L -32.4 841.89"/>
<path style="stroke:#000000; stroke-width:0.850394; stroke-linejoin:round; stroke-linecap:round; fill:none" d="M -3.2 875.69L -2.13934 874.629"/>
<path style="stroke:#000000; stroke-width:0.850394; stroke-linejoin:round; stroke-linecap:round; fill:none" d="M 3.2 875.69L 4.26066 874.629"/>
<path style="stroke:#000000; stroke-width:0.850394; stroke-linejoin:round; stroke-linecap:round; fill:none" d="M 34 841.89L 35.1314 840.758"/>
<path style="stroke:#000000; stroke-width:0.850394; stroke-linejoin:round; stroke-linecap:round; fill:none" d="M -34 841.89L -35.1314 840.758"/>
<path style="stroke:#000000; stroke-width:0.850394; stroke-linejoin:round; stroke-linecap:round; fill:none" d="M -34 841.89L -35.1314 843.021"/>
<path style="stroke:#000000; stroke-width:0.850394; stroke-linejoin:round; stroke-linecap:round; fill:none" d="M -34 841.89L -32.8686 843.021"/>
<path style="stroke:#000000; stroke-width:0.850394; stroke-linejoin:round; stroke-linecap:round; fill:none" d="M -3.2 875.69L -4.26066 874.629"/>
<path style="stroke:#000000; stroke-width:0.850394; stroke-linejoin:round; stroke-linecap:round; fill:none" d="M -3.2 875.69L -4.26066 876.75"/>
<path style="stroke:#000000; stroke-width:0.850394; stroke-linejoin:round; stroke-linecap:round; fill:none" d="M -3.2 875.69L -2.13934 876.75"/>
<path style="stroke:#000000; stroke-width:0.850394; stroke-linejoin:round; stroke-linecap:round; fill:none" d="M 3.2 875.69L 2.13934 874.629"/>
<path style="stroke:#000000; stroke-width:0.850394; stroke-linejoin:round; stroke-linecap:round; fill:none" d="M 3.2 875.69L 2.13934 876.75"/>
<path style="stroke:#000000; stroke-width:0.850394; stroke-linejoin:round; stroke-linecap:round; fill:none" d="M 3.2 875.69L 4.26066 876.75"/>
<path style="stroke:#000000; stroke-width:0.850394; stroke-linejoin:round; stroke-linecap:round; fill:none" d="M 34 841.89L 32.8686 840.758"/>
<path style="stroke:#000000; stroke-width:0.850394; stroke-linejoin:round; stroke-linecap:round; fill:none" d="M 34 841.89L 32.8686 843.021"/>
<path style="stroke:#000000; stroke-width:0.850394; stroke-linejoin:round; stroke-linecap:round; fill:none" d="M 34 841.89L 35.1314 843.021"/>
<path style="stroke:#000000; stroke-width:0.850394; stroke-linejoin:round; stroke-linecap:round; fill:none" d="M 29 841.89C 29 825.883 16.0071 812.89 0 812.89C -16.0071 812.89 -29 825.883 -29 841.89C -29 857.897 -16.0071 870.89 0 870.89C 16.0071 870.89 29 857.897 29 841.89z"/>
</g>
</svg>