<?xml version="1.0" standalone="no"?>
<!DOCTYPE svg PUBLIC "-//W3C//DTD SVG 20010904//EN"
 "http://www.w3.org/TR/2001/REC-SVG-20010904/DTD/svg10.dtd">
<svg version="1.0" xmlns="http://www.w3.org/2000/svg"
 width="40.000000pt" height="40.000000pt" viewBox="0 0 40.000000 40.000000"
 preserveAspectRatio="xMidYMid meet">

<g transform="translate(0.000000,40.000000) scale(0.100000,-0.100000)"
fill="#000000" stroke="none">
<path d="M80 324 c0 -3 18 -28 40 -54 22 -26 40 -54 40 -61 0 -8 -19 -39 -40
-69 l-40 -55 41 -3 c40 -3 66 6 41 15 -9 3 -2 20 23 54 19 27 35 53 35 58 0 4
-16 29 -35 55 -20 25 -31 46 -25 46 5 0 10 5 10 10 0 6 -20 10 -45 10 -25 0
-45 -3 -45 -6z"/>
<path d="M192 308 c2 -15 10 -23 23 -23 13 0 21 8 23 23 3 18 -1 22 -23 22
-22 0 -26 -4 -23 -22z"/>
<path d="M278 300 c41 -38 52 -38 52 0 0 29 -2 30 -42 30 l-43 -1 33 -29z"/>
<path d="M280 115 l-34 -35 37 0 c36 0 37 1 37 35 0 19 -1 35 -3 35 -2 0 -18
-16 -37 -35z"/>
<path d="M190 114 c-11 -12 -10 -18 3 -31 8 -9 23 -13 31 -10 21 8 21 43 0 51
-21 8 -20 8 -34 -10z"/>
</g>
</svg>
