<?xml version="1.0" standalone="no"?>
<!DOCTYPE svg PUBLIC "-//W3C//DTD SVG 20010904//EN"
 "http://www.w3.org/TR/2001/REC-SVG-20010904/DTD/svg10.dtd">
<svg version="1.0" xmlns="http://www.w3.org/2000/svg"
 width="1632.000000pt" height="1368.000000pt" viewBox="0 0 1632.000000 1368.000000"
 preserveAspectRatio="xMidYMid meet">

<g transform="translate(0.000000,1368.000000) scale(0.100000,-0.100000)"
fill="#000000" stroke="none">
<path d="M14344 12243 c-13 -15 -72 -88 -131 -162 -60 -74 -127 -156 -149
-182 -23 -26 -56 -68 -73 -93 -20 -29 -69 -71 -134 -117 -56 -40 -131 -95
-167 -124 -36 -28 -83 -63 -106 -77 -22 -14 -84 -62 -137 -107 -115 -95 -243
-180 -422 -280 -148 -84 -394 -244 -444 -291 -28 -26 -32 -36 -27 -60 5 -27 3
-30 -22 -30 -49 0 -264 -20 -432 -40 -91 -10 -212 -22 -270 -25 -185 -11 -532
-45 -615 -61 -83 -16 -457 -112 -464 -120 -7 -7 -4 -6 215 42 115 25 249 52
298 60 98 15 428 32 637 33 74 1 209 5 300 11 90 5 256 10 369 11 113 0 257 4
320 9 63 5 219 14 345 19 127 6 259 16 294 22 95 17 128 62 80 110 -17 17 -27
20 -53 13 -17 -4 -114 -9 -216 -10 -107 -1 -227 -9 -285 -18 -100 -15 -347
-46 -375 -46 -21 0 37 37 206 133 292 164 475 290 619 428 44 42 110 101 147
130 201 161 336 279 390 343 34 39 116 130 183 201 67 72 133 143 146 158 l24
29 68 -91 c43 -57 95 -147 143 -247 109 -225 147 -261 339 -319 170 -52 236
-90 386 -228 74 -69 148 -144 163 -166 27 -38 28 -46 24 -112 -8 -100 -68
-220 -143 -286 -56 -48 -70 -84 -43 -111 47 -47 153 45 231 198 102 205 97
310 -20 421 -69 67 -237 201 -305 246 -76 49 -197 108 -304 147 -124 46 -181
113 -274 325 -50 114 -86 173 -157 259 -47 55 -61 65 -106 76 -23 6 -33 2 -53
-21z"/>
<path d="M10638 10443 c7 -3 16 -2 19 1 4 3 -2 6 -13 5 -11 0 -14 -3 -6 -6z"/>
<path d="M10598 10433 c7 -3 16 -2 19 1 4 3 -2 6 -13 5 -11 0 -14 -3 -6 -6z"/>
<path d="M10558 10423 c7 -3 16 -2 19 1 4 3 -2 6 -13 5 -11 0 -14 -3 -6 -6z"/>
<path d="M10518 10413 c7 -3 16 -2 19 1 4 3 -2 6 -13 5 -11 0 -14 -3 -6 -6z"/>
<path d="M10478 10403 c7 -3 16 -2 19 1 4 3 -2 6 -13 5 -11 0 -14 -3 -6 -6z"/>
<path d="M10438 10393 c7 -3 16 -2 19 1 4 3 -2 6 -13 5 -11 0 -14 -3 -6 -6z"/>
<path d="M10398 10383 c7 -3 16 -2 19 1 4 3 -2 6 -13 5 -11 0 -14 -3 -6 -6z"/>
<path d="M10225 10351 c-114 -26 -268 -71 -262 -78 3 -2 389 92 412 101 30 12
-45 0 -150 -23z"/>
<path d="M9928 10263 c7 -3 16 -2 19 1 4 3 -2 6 -13 5 -11 0 -14 -3 -6 -6z"/>
<path d="M9888 10253 c7 -3 16 -2 19 1 4 3 -2 6 -13 5 -11 0 -14 -3 -6 -6z"/>
<path d="M9838 10243 c7 -3 16 -2 19 1 4 3 -2 6 -13 5 -11 0 -14 -3 -6 -6z"/>
<path d="M9788 10233 c7 -3 16 -2 19 1 4 3 -2 6 -13 5 -11 0 -14 -3 -6 -6z"/>
<path d="M9738 10223 c7 -3 16 -2 19 1 4 3 -2 6 -13 5 -11 0 -14 -3 -6 -6z"/>
<path d="M9688 10213 c7 -3 16 -2 19 1 4 3 -2 6 -13 5 -11 0 -14 -3 -6 -6z"/>
<path d="M9638 10203 c7 -3 16 -2 19 1 4 3 -2 6 -13 5 -11 0 -14 -3 -6 -6z"/>
<path d="M9505 10179 c-44 -10 -133 -25 -197 -33 -64 -9 -161 -27 -215 -40
-93 -24 -215 -47 -523 -96 -74 -12 -179 -33 -232 -46 -53 -13 -115 -24 -137
-24 -92 0 -119 -37 -81 -115 40 -83 281 -279 443 -362 27 -13 79 -43 115 -67
37 -23 164 -93 282 -154 259 -135 357 -203 723 -505 59 -50 107 -97 107 -106
0 -24 -16 -42 -95 -105 -38 -31 -128 -119 -200 -195 -156 -167 -449 -451 -635
-616 -178 -157 -239 -221 -384 -400 -76 -95 -217 -246 -382 -411 -329 -329
-445 -472 -534 -656 -23 -47 -40 -97 -40 -117 0 -80 67 -161 215 -260 88 -58
201 -104 345 -138 96 -23 127 -26 380 -29 151 -1 329 -7 395 -11 66 -4 228 -5
360 -1 132 4 330 4 440 1 198 -6 384 2 1045 44 l275 18 -155 3 c-92 2 -218 -4
-310 -13 -128 -13 -294 -16 -945 -16 -473 -1 -824 3 -875 9 -47 6 -157 14
-245 17 -239 10 -380 43 -560 133 -193 96 -295 182 -295 250 1 94 226 417 482
688 58 61 149 163 204 226 175 204 350 391 420 454 38 33 134 111 214 174 80
62 195 156 255 209 61 53 150 130 199 171 133 111 138 117 227 225 45 55 124
141 175 190 141 136 140 174 -7 285 -48 36 -141 110 -209 165 -193 158 -239
191 -340 247 -180 98 -385 223 -585 355 -252 166 -335 226 -399 287 l-51 49
40 9 c22 5 85 22 140 38 55 17 227 57 382 90 155 33 339 73 410 89 70 16 153
32 183 36 52 6 280 62 289 71 9 8 -37 2 -114 -17z"/>
<path d="M10445 9690 c-34 -13 -48 -39 -48 -83 0 -48 38 -208 58 -246 35 -68
170 -158 283 -191 88 -25 117 -19 128 24 10 41 -11 63 -83 87 -89 29 -206 116
-226 167 -22 55 -30 102 -19 102 6 0 48 -16 94 -36 130 -55 238 -148 287 -245
20 -41 34 -55 58 -62 46 -14 71 -4 156 58 88 65 295 167 382 189 33 8 65 23
72 33 33 44 0 113 -54 113 -65 0 -249 -68 -345 -127 -32 -19 -82 -54 -111 -78
l-54 -44 -32 42 c-17 23 -69 75 -115 116 -63 56 -104 84 -172 114 -183 80
-210 87 -259 67z"/>
<path d="M13103 9368 c-33 -37 -42 -62 -57 -160 -8 -51 -22 -120 -30 -153 -75
-295 -97 -435 -101 -630 -8 -391 -36 -692 -86 -944 -36 -182 -36 -215 3 -219
40 -5 52 28 92 254 51 288 65 391 76 554 10 160 33 245 94 355 38 70 72 95
164 125 98 32 218 90 305 149 42 28 98 63 123 76 54 28 114 34 114 10 0 -45
-74 -307 -111 -392 -65 -152 -89 -242 -99 -388 -6 -71 -16 -149 -23 -173 l-13
-42 -46 47 c-25 27 -63 71 -84 98 -22 28 -81 99 -133 158 -75 85 -100 107
-121 107 -33 0 -50 -17 -50 -51 0 -19 21 -51 70 -107 38 -45 97 -121 132 -169
125 -178 166 -213 247 -213 87 0 126 80 141 297 10 145 19 180 100 383 69 175
140 410 140 465 0 49 -26 102 -63 129 -21 16 -42 20 -87 19 -86 -2 -149 -27
-248 -98 -98 -70 -206 -127 -332 -175 -47 -18 -91 -37 -97 -43 -17 -13 -17 17
2 201 14 135 59 333 86 384 6 11 11 45 11 76 1 46 -3 59 -22 74 -30 25 -72 23
-97 -4z"/>
<path d="M11100 8040 c-11 -11 -20 -29 -20 -39 0 -20 74 -128 164 -241 29 -36
74 -94 101 -130 27 -36 72 -95 100 -132 64 -84 160 -268 175 -332 15 -70 -4
-189 -50 -306 -21 -52 -45 -122 -55 -155 -9 -33 -27 -79 -41 -102 -41 -70 -27
-118 33 -111 34 4 64 53 94 153 11 39 43 118 70 176 59 126 75 222 58 348 -22
163 -183 448 -376 666 -54 61 -113 131 -132 155 -59 77 -84 87 -121 50z"/>
<path d="M10610 7880 c-11 -11 -20 -30 -20 -42 0 -32 97 -121 213 -198 88 -58
108 -77 178 -170 90 -119 138 -212 182 -350 29 -92 29 -99 23 -230 -9 -185
-21 -248 -66 -360 -41 -99 -49 -147 -28 -168 16 -16 63 -15 75 1 10 12 78 221
88 267 2 14 14 109 25 212 l21 187 -25 106 c-33 135 -68 218 -152 352 -111
178 -117 184 -288 284 -32 19 -83 55 -113 82 -59 52 -83 57 -113 27z"/>
<path d="M11850 7820 c-23 -23 -26 -49 -7 -72 6 -8 46 -41 87 -74 127 -99 260
-226 266 -253 3 -14 18 -71 34 -126 61 -208 78 -296 71 -365 -4 -36 -15 -79
-24 -97 -21 -40 -22 -106 -1 -127 16 -17 61 -21 81 -8 7 5 24 41 38 82 41 120
33 250 -30 525 -13 55 -27 116 -30 135 -11 53 -31 85 -83 133 -111 104 -335
267 -365 267 -9 0 -26 -9 -37 -20z"/>
<path d="M13045 6025 c-72 -11 -184 -28 -550 -79 -156 -22 -385 -64 -355 -65
40 -1 259 26 465 58 267 42 468 61 638 61 140 0 147 1 147 20 0 19 -6 20 -132
19 -73 -1 -169 -7 -213 -14z"/>
<path d="M12053 5873 c9 -2 25 -2 35 0 9 3 1 5 -18 5 -19 0 -27 -2 -17 -5z"/>
<path d="M11963 5863 c9 -2 25 -2 35 0 9 3 1 5 -18 5 -19 0 -27 -2 -17 -5z"/>
<path d="M11868 5853 c12 -2 30 -2 40 0 9 3 -1 5 -23 4 -22 0 -30 -2 -17 -4z"/>
<path d="M11758 5843 c12 -2 30 -2 40 0 9 3 -1 5 -23 4 -22 0 -30 -2 -17 -4z"/>
<path d="M11565 5833 c-22 -2 -91 -13 -154 -23 -62 -11 -125 -20 -140 -21 -14
0 -20 -3 -14 -6 14 -5 226 19 363 41 70 12 76 14 35 13 -27 0 -68 -2 -90 -4z"/>
<path d="M11168 5773 c12 -2 30 -2 40 0 9 3 -1 5 -23 4 -22 0 -30 -2 -17 -4z"/>
<path d="M11043 5763 c15 -2 37 -2 50 0 12 2 0 4 -28 4 -27 0 -38 -2 -22 -4z"/>
</g>
</svg>
