<?xml version="1.0" standalone="no"?>
<!DOCTYPE svg PUBLIC "-//W3C//DTD SVG 20010904//EN"
 "http://www.w3.org/TR/2001/REC-SVG-20010904/DTD/svg10.dtd">
<svg version="1.0" xmlns="http://www.w3.org/2000/svg"
 width="139.000000pt" height="186.000000pt" viewBox="0 0 139.000000 186.000000"
 preserveAspectRatio="xMidYMid meet">

<g transform="translate(0.000000,186.000000) scale(0.100000,-0.100000)"
fill="#000000" stroke="none">
<path d="M190 1751 l-54 -29 62 -31 62 -31 0 25 0 25 235 0 c202 0 235 2 235
15 0 13 -33 15 -235 15 -228 0 -235 1 -235 20 0 25 -4 25 -70 -9z"/>
<path d="M330 1465 c0 -57 4 -95 10 -95 6 0 10 28 10 64 0 58 3 67 26 85 15
12 33 21 41 21 20 0 33 -43 33 -111 0 -33 4 -59 10 -59 6 0 10 30 10 70 0 64
2 71 26 87 44 28 58 9 62 -81 4 -104 22 -97 22 9 0 82 -1 86 -26 97 -22 10
-31 9 -56 -5 -28 -16 -32 -16 -48 -2 -21 19 -54 19 -70 0 -7 -8 -16 -15 -21
-15 -5 0 -9 7 -9 15 0 8 -4 15 -10 15 -6 0 -10 -38 -10 -95z"/>
<path d="M410 1260 c-12 -12 -18 -25 -14 -31 4 -6 14 -2 25 10 24 25 74 28 83
5 10 -26 7 -34 -11 -34 -81 0 -130 -47 -99 -95 18 -27 53 -33 89 -14 16 9 22
9 25 0 2 -6 9 -11 15 -11 19 0 9 151 -10 173 -22 24 -78 22 -103 -3z m100 -92
c0 -50 -77 -81 -99 -39 -17 32 15 59 72 60 21 1 27 -4 27 -21z"/>
<path d="M450 975 c0 -8 9 -15 20 -15 11 0 20 7 20 15 0 8 -9 15 -20 15 -11 0
-20 -7 -20 -15z"/>
<path d="M460 815 c0 -57 4 -95 10 -95 6 0 10 38 10 95 0 57 -4 95 -10 95 -6
0 -10 -38 -10 -95z"/>
<path d="M410 445 c0 -78 3 -95 15 -95 12 0 15 14 15 69 0 61 3 72 22 85 53
38 78 8 78 -95 0 -33 4 -59 10 -59 6 0 10 33 10 78 0 64 -4 82 -18 95 -23 21
-52 22 -78 2 -25 -19 -34 -19 -34 0 0 8 -4 15 -10 15 -6 0 -10 -38 -10 -95z"/>
</g>
</svg>
