0
SECTION
2
HEADER
9
$INSUNITS
70
4
9
$ACADVER
1
AC1014
9
$HANDSEED
5
FFFF
0
ENDSEC
0
SECTION
2
TABLES
0
TABLE
2
VPORT
5
8
100
AcDbSymbolTable
0
ENDTAB
0
TABLE
2
LTYPE
5
5
100
AcDbSymbolTable
0
LTYPE
5
14
100
AcDbSymbolTableRecord
100
AcDbLinetypeTableRecord
2
BYBLOCK
70
0
0
LTYPE
5
15
100
AcDbSymbolTableRecord
100
AcDbLinetypeTableRecord
2
BYLAYER
70
0
0
LTYPE
5
16
100
AcDbSymbolTableRecord
100
AcDbLinetypeTableRecord
2
DASHED
70
0
3
Dashed __ __ __ __ __ __ __ __ __ __ __ __ __ _
72
65
73
2
40
0.75
49
0.5
74
0
49
-0.25
74
0
0
ENDTAB
0
TABLE
2
LAYER
5
2
100
AcDbSymbolTable
70
3
0
LAYER
5
50
100
AcDbSymbolTableRecord
100
AcDbLayerTableRecord
2
1
70
0
62
7
6
DASHED
0
LAYER
5
51
100
AcDbSymbolTableRecord
100
AcDbLayerTableRecord
2
0
70
0
62
7
6
CONTINUOUS
0
ENDTAB
0
TABLE
2
STYLE
5
3
100
AcDbSymbolTable
70
1
0
STYLE
5
11
100
AcDbSymbolTableRecord
100
AcDbTextStyleTableRecord
2
STANDARD
70
0
0
ENDTAB
0
TABLE
2
VIEW
5
6
100
AcDbSymbolTable
70
0
0
ENDTAB
0
TABLE
2
UCS
5
7
100
AcDbSymbolTable
70
0
0
ENDTAB
0
TABLE
2
APPID
5
9
100
AcDbSymbolTable
70
2
0
APPID
5
12
100
AcDbSymbolTableRecord
100
AcDbRegAppTableRecord
2
ACAD
70
0
0
ENDTAB
0
TABLE
2
DIMSTYLE
5
A
100
AcDbSymbolTable
70
1
0
ENDTAB
0
TABLE
2
BLOCK_RECORD
5
1
100
AcDbSymbolTable
70
1
0
BLOCK_RECORD
5
1F
100
AcDbSymbolTableRecord
100
AcDbBlockTableRecord
2
*MODEL_SPACE
0
BLOCK_RECORD
5
1B
100
AcDbSymbolTableRecord
100
AcDbBlockTableRecord
2
*PAPER_SPACE
0
ENDTAB
0
ENDSEC
0
SECTION
2
BLOCKS
0
BLOCK
5
20
100
AcDbEntity
100
AcDbBlockBegin
2
*MODEL_SPACE
0
ENDBLK
5
21
100
AcDbEntity
100
AcDbBlockEnd
0
BLOCK
5
1C
100
AcDbEntity
100
AcDbBlockBegin
2
*PAPER_SPACE
0
ENDBLK
5
1D
100
AcDbEntity
100
AcDbBlockEnd
0
ENDSEC
0
SECTION
2
ENTITIES
0
ARC
5
100
100
AcDbEntity
8
0
100
AcDbCircle
10
-3.8398915748510039
20
114.07007625658827
30
0
40
60.735096781492373
210
-5.0707476407043347e-36
220
-2.5476104806103383e-36
230
1
100
AcDbArc
50
317.39126426785282
51
324.68915888801018
0
LINE
5
101
100
AcDbEntity
8
0
100
AcDbLine
10
-9.9352230696131194
20
25.905785839163627
30
-2.1793933179801401e-15
11
9.9352230696130857
21
25.905785839163663
31
-2.2121271033610516e-15
0
LINE
5
102
100
AcDbEntity
8
0
100
AcDbLine
10
-12.056543413172767
20
26.784465495603982
30
-2.0778821552380322e-15
11
-16.3345237791561
21
31.062445861587314
31
-1.5936267127172231e-15
0
LINE
5
103
100
AcDbEntity
8
0
100
AcDbLine
10
16.334523779156068
20
31.062445861587356
30
-1.7342408140552036e-15
11
12.056543413172722
21
26.784465495604017
31
-2.1323949504865921e-15
0
ARC
5
104
100
AcDbEntity
8
0
100
AcDbCircle
10
-9.9352230696131265
20
28.90578583916362
30
-1.8447437686110283e-15
40
2.9999999999999947
210
1.6473603638068111e-18
220
-1.1154984978970409e-16
230
1
100
AcDbArc
50
224.99999999999997
51
270.00000000000011
0
ARC
5
105
100
AcDbEntity
8
0
100
AcDbCircle
10
9.9352230696130945
20
28.905785839163627
30
-1.9279732664626182e-15
40
2.9999999999999671
210
1.6473603638062441e-18
220
-9.4717945632812239e-17
230
1
100
AcDbArc
50
269.99999999999983
51
315.00000000000028
0
LINE
5
106
100
AcDbEntity
8
0
100
AcDbLine
10
38.47351146152841
20
89.880908798984379
30
3.1704785121052753e-35
11
45.352361695445367
21
83.115866215486307
31
1.1943378968241673e-34
0
LINE
5
107
100
AcDbEntity
8
0
100
AcDbLine
10
-40.860767782844469
20
72.953132862785708
30
1.3879930326513731e-34
11
-32.21417117205177
21
66.124462330669672
31
9.3546764853226848e-50
0
LINE
5
108
100
AcDbEntity
8
0
100
AcDbLine
10
-32.04917383331383
20
64.719906928341445
30
8.7783652435648501e-35
11
-32.522570788673455
21
64.120482415104064
31
1.5483418441801977e-34
0
LINE
5
109
100
AcDbEntity
8
0
100
AcDbLine
10
-16.3345237791561
20
31.062445861587314
30
-1.5936267127172231e-15
11
-31.273328324073113
21
46.001250406504319
31
-1.4227725303926099e-16
0
LINE
5
110
100
AcDbEntity
8
0
100
AcDbLine
10
-32.737794418140375
20
63.500703383308931
30
1.8082110707600745e-34
11
-32.737794418140375
21
49.536784312437057
31
0
0
LINE
5
111
100
AcDbEntity
8
0
100
AcDbLine
10
16.334523779156068
20
31.062445861587356
30
-1.7342408140552036e-15
11
31.273328840926755
21
46.001250923358079
31
-1.5483112161000608e-16
0
ARC
5
112
100
AcDbEntity
8
0
100
AcDbCircle
10
43.097583513358543
20
80.823156120380943
30
8.059253565897238e-35
40
3.215671660971227
210
-1.9163156639806055e-35
220
1.3060496268243853e-36
230
1
100
AcDbArc
50
-35.310841113490213
51
45.477909560088541
0
ARC
5
113
100
AcDbEntity
8
0
100
AcDbCircle
10
27.737794934994049
20
49.536784829290795
30
-5.2862651527831842e-16
40
4.9999999999999654
210
-1.0572530305566445e-16
220
5.5466782398352393e-32
230
1
100
AcDbArc
50
-45.000000000000099
51
0
0
ARC
5
114
100
AcDbEntity
8
0
100
AcDbCircle
10
-27.737794418140393
20
49.536784312437049
30
-4.8576492694383219e-16
40
4.9999999999999822
210
9.715298538876678e-17
220
5.2891923999933559e-32
230
1
100
AcDbArc
50
180
51
225.00000000000006
0
ARC
5
115
100
AcDbEntity
8
0
100
AcDbCircle
10
-31.737794418140393
20
63.500703383308931
30
2.278760325770902e-35
40
0.99999999999998557
210
1.5803350381830085e-34
220
-1.2949166072811177e-35
230
1
100
AcDbArc
50
141.69999999999959
51
180
0
ARC
5
116
100
AcDbEntity
8
0
100
AcDbCircle
10
-32.833950203846925
20
65.339685960136592
30
8.7783652435648843e-35
40
1.0000000000000067
210
5.4406467114007044e-35
220
6.8890536150585673e-35
230
1
100
AcDbArc
50
-38.299999999999912
51
51.699999999999278
0
CIRCLE
5
117
100
AcDbEntity
8
0
100
AcDbCircle
10
21.682605966481763
20
40.653168736032356
30
-9.4453596783260476e-16
40
1.6000000000000005
210
0
220
0
230
1
0
LINE
5
118
100
AcDbEntity
8
0
100
AcDbLine
10
27.846781052341882
20
73.187343479678802
30
4.226498947383784e-50
11
31.38231495827462
21
76.72287738561154
31
4.226498947383784e-50
0
LINE
5
119
100
AcDbEntity
8
0
100
AcDbLine
10
27.846781052341889
20
73.187343479678816
30
4.226498947383784e-50
11
24.311247146409151
21
76.722877385611554
31
4.226498947383784e-50
0
LINE
5
120
100
AcDbEntity
8
0
100
AcDbLine
10
27.846781052341882
20
73.187343479678802
30
4.226498947383784e-50
11
24.311247146409141
21
69.651809573746064
31
4.226498947383784e-50
0
LINE
5
121
100
AcDbEntity
8
0
100
AcDbLine
10
27.846781052341882
20
73.187343479678802
30
4.226498947383784e-50
11
31.38231495827462
21
69.651809573746064
31
4.226498947383784e-50
0
LINE
5
122
100
AcDbEntity
8
0
100
AcDbLine
10
34.00000052154062
20
87.650001266598736
30
0
11
36.000000521540628
21
85.65000126659875
31
0
0
LINE
5
123
100
AcDbEntity
8
0
100
AcDbLine
10
36.000000521540628
20
87.650001266598736
30
0
11
34.00000052154062
21
85.65000126659875
31
0
0
CIRCLE
5
124
100
AcDbEntity
8
0
100
AcDbCircle
10
-21.682605966481763
20
40.653168736032356
30
-9.4453596783260476e-16
40
1.6000000000000005
210
0
220
0
230
1
0
LINE
5
125
100
AcDbEntity
8
0
100
AcDbLine
10
-27.846781052341882
20
73.187343479678802
30
4.226498947383784e-50
11
-31.38231495827462
21
69.651809573746064
31
4.226498947383784e-50
0
LINE
5
126
100
AcDbEntity
8
0
100
AcDbLine
10
-27.846781052341882
20
73.187343479678802
30
4.226498947383784e-50
11
-31.38231495827462
21
76.72287738561154
31
4.226498947383784e-50
0
LINE
5
127
100
AcDbEntity
8
0
100
AcDbLine
10
-27.846781052341889
20
73.187343479678816
30
4.226498947383784e-50
11
-24.311247146409151
21
76.722877385611554
31
4.226498947383784e-50
0
LINE
5
128
100
AcDbEntity
8
0
100
AcDbLine
10
-27.846781052341882
20
73.187343479678802
30
4.226498947383784e-50
11
-24.311247146409141
21
69.651809573746064
31
4.226498947383784e-50
0
LINE
5
129
100
AcDbEntity
8
0
100
AcDbLine
10
-34.00000052154062
20
87.650001266598736
30
0
11
-36.000000521540628
21
85.65000126659875
31
0
0
LINE
5
130
100
AcDbEntity
8
0
100
AcDbLine
10
-36.000000521540628
20
87.650001266598736
30
0
11
-34.00000052154062
21
85.65000126659875
31
0
0
LINE
5
131
100
AcDbEntity
8
0
100
AcDbLine
10
-0.23173574475542918
20
116.29715884847199
30
0
11
0.5000000074505806
21
116.29715884847199
31
0
0
LINE
5
132
100
AcDbEntity
8
0
100
AcDbLine
10
0
20
117.50000175088644
30
0
11
0
21
115.00000171363354
31
0
0
LINE
5
133
100
AcDbEntity
8
0
100
AcDbLine
10
32.737794418140375
20
63.500703383308931
30
1.8082110707600745e-34
11
32.737794418140375
21
49.536784312437057
31
0
0
ARC
5
134
100
AcDbEntity
8
0
100
AcDbCircle
10
31.737794418140393
20
63.500703383308931
30
2.278760325770902e-35
40
0.99999999999998312
210
-1.580335038183011e-34
220
-1.2949166072811177e-35
230
1
100
AcDbArc
50
0
51
38.300000000000395
0
LINE
5
135
100
AcDbEntity
8
0
100
AcDbLine
10
32.04917383331383
20
64.719906928341445
30
8.7783652435648501e-35
11
32.522570788673455
21
64.120482415104064
31
1.5483418441801977e-34
0
ARC
5
136
100
AcDbEntity
8
0
100
AcDbCircle
10
32.833950203846925
20
65.339685960136592
30
8.7783652435648843e-35
40
1.0000000000000078
210
1.2608584690193875e-35
220
1.2181583497768471e-34
230
1
100
AcDbArc
50
128.30000000000075
51
218.2999999999999
0
LINE
5
137
100
AcDbEntity
8
0
100
AcDbLine
10
40.860767782654534
20
72.953132862635698
30
1.2191580705390378e-34
11
32.21417117205177
21
66.124462330669672
31
9.3546764853226848e-50
0
LINE
5
138
100
AcDbEntity
8
0
100
AcDbLine
10
-38.47351146152841
20
89.880908798984379
30
3.1704785121052753e-35
11
-45.352361695445367
21
83.115866215486307
31
1.1943378968241673e-34
0
ARC
5
139
100
AcDbEntity
8
0
100
AcDbCircle
10
3.8398915748510039
20
114.07007625658827
30
0
40
60.735096781530622
210
1.2985927298040534e-36
220
1.9639434583543943e-36
230
1
100
AcDbArc
50
215.31084111198979
51
222.60873573192168
0
ARC
5
140
100
AcDbEntity
8
0
100
AcDbCircle
10
-43.097583513358543
20
80.823156120380943
30
8.059253565897238e-35
40
3.2156716608840608
210
-6.1905867242169672e-37
220
-1.7550013888521385e-35
230
1
100
AcDbArc
50
134.52209043991147
51
215.3108411134902
0
ARC
5
141
100
AcDbEntity
8
0
100
AcDbCircle
10
0
20
116.29715884847199
30
0
40
43.240380754558046
210
-6.0771875581902224e-52
220
-4.7713897439677869e-52
230
1
100
AcDbArc
50
218.13656554011789
51
321.86343445988206
0
ARC
5
142
100
AcDbEntity
8
0
100
AcDbCircle
10
36.369958841874514
20
87.741968319132951
30
4.67532246676286e-35
40
2.9999999999999711
210
-8.0637400169739885e-36
220
1.4965793244379076e-35
230
1
100
AcDbArc
50
45.477909560596338
51
141.86343445988328
0
ARC
5
143
100
AcDbEntity
8
0
100
AcDbCircle
10
-36.369958841874514
20
87.741968319132951
30
4.6753224667628995e-35
40
2.9999999999999738
210
8.0637400169739297e-36
220
1.4965793244379207e-35
230
1
100
AcDbArc
50
38.136565540117672
51
134.52209043940368
0
ENDSEC
0
SECTION
2
OBJECTS
0
DICTIONARY
5
C
100
AcDbDictionary
3
ACAD_GROUP
350
D
3
ACAD_MLINESTYLE
350
17
0
DICTIONARY
5
D
100
AcDbDictionary
0
DICTIONARY
5
1A
330
C
100
AcDbDictionary
0
DICTIONARY
5
17
100
AcDbDictionary
0
ENDSEC
0
EOF
